<svg width="64" height="64" viewBox="0 0 64 64" fill="none" xmlns="http://www.w3.org/2000/svg">
<g clip-path="url(#clip0_2_1689)">
<mask id="mask0_2_1689" style="mask-type:luminance" maskUnits="userSpaceOnUse" x="0" y="0" width="64" height="64">
<path fill-rule="evenodd" clip-rule="evenodd" d="M64 19.9322C64 19.1724 64.0003 18.4126 63.9956 17.6528C63.9918 17.0127 63.9845 16.3728 63.9671 15.733C63.9295 14.3386 63.8472 12.9322 63.5992 11.5534C63.3477 10.1546 62.937 8.85278 62.2898 7.58188C61.6535 6.33272 60.8224 5.18965 59.8307 4.19866C58.8393 3.20768 57.6959 2.37708 56.4463 1.7412C55.174 1.09382 53.8708 0.68326 52.4705 0.431843C51.0915 0.184232 49.6848 0.102136 48.2904 0.0644658C47.6501 0.0471455 47.0099 0.0398445 46.3695 0.0358834C45.6093 0.0312232 44.8491 0.0316115 44.0888 0.0316115L35.2619 0H28.66L19.9892 0.0316115C19.2275 0.0316115 18.4658 0.0312232 17.7041 0.0358834C17.0624 0.0398445 16.421 0.0471455 15.7795 0.0644658C14.3819 0.102136 12.9719 0.18431 11.5897 0.432231C10.1875 0.68357 8.88234 1.09398 7.60841 1.74089C6.35615 2.37685 5.21029 3.20752 4.21675 4.19866C3.22335 5.18957 2.39066 6.3324 1.75323 7.58133C1.10422 8.85286 0.692733 10.1555 0.440618 11.555C0.192387 12.9333 0.110135 14.3392 0.0723101 15.733C0.0550676 16.3728 0.0476113 17.0128 0.0437278 17.6528C0.0390677 18.4127 0 19.3566 0 20.1164L0.000233008 28.6671L0 35.3397L0.039456 44.072C0.039456 44.8328 0.0391453 45.5937 0.0437278 46.3545C0.0476113 46.9955 0.0550676 47.6363 0.0723878 48.277C0.110135 49.6731 0.192542 51.0815 0.441006 52.4623C0.693043 53.8629 1.10446 55.1666 1.75292 56.4391C2.39043 57.69 3.22328 58.8346 4.21675 59.827C5.21021 60.8194 6.35576 61.651 7.60779 62.2878C8.8825 62.9361 10.1883 63.3472 11.5913 63.5989C12.973 63.8469 14.3824 63.9292 15.7795 63.9668C16.421 63.9842 17.0625 63.9915 17.7042 63.9954C18.4659 64.0001 19.2275 63.9998 19.9892 63.9998L28.7383 64H35.3566L44.0888 63.9997C44.8491 63.9997 45.6093 64.0001 46.3695 63.9954C47.0099 63.9915 47.6501 63.9842 48.2904 63.9668C49.6853 63.9291 51.0925 63.8468 52.4722 63.5986C53.8716 63.3469 55.1742 62.9359 56.4457 62.2881C57.6956 61.6514 58.8392 60.8195 59.8307 59.827C60.8222 58.8347 61.6533 57.6904 62.2896 56.4396C62.9372 55.1665 63.3479 53.8622 63.5995 52.4606C63.8473 51.0804 63.9295 49.6726 63.9671 48.277C63.9845 47.6362 63.9918 46.9954 63.9956 46.3545C64.0004 45.5937 64 44.8328 64 44.072C64 44.072 63.9995 35.4939 63.9995 35.3397V28.6601C63.9995 28.5462 64 19.9322 64 19.9322Z" fill="white"/>
</mask>
<g mask="url(#mask0_2_1689)">
<rect x="-4.50485" y="-4.81555" width="70.9903" height="70.9903" fill="#2E0315"/>
<path d="M31.5106 -1C17.9422 -1 13.9739 -0.985999 13.2026 -0.921993C10.4181 -0.690474 8.6854 -0.251937 6.79776 0.688143C5.34303 1.4107 4.19575 2.24827 3.06346 3.42237C1.00135 5.56356 -0.248419 8.19778 -0.700834 11.329C-0.920793 12.8492 -0.984781 13.1592 -0.997778 20.9239C-1.00278 23.5121 -0.997778 26.9184 -0.997778 31.4873C-0.997778 45.0484 -0.982781 49.0137 -0.917793 49.7838C-0.692836 52.494 -0.267915 54.1992 0.631915 56.0643C2.35159 59.6346 5.63597 62.3149 9.50525 63.3149C10.845 63.66 12.3247 63.85 14.2244 63.94C15.0292 63.975 23.2327 64 31.4411 64C39.6496 64 47.858 63.99 48.6429 63.95C50.8425 63.8465 52.1197 63.675 53.532 63.3099C57.4262 62.3049 60.6506 59.6646 62.4053 56.0443C63.2876 54.2242 63.7351 52.454 63.9375 49.8853C63.9815 49.3253 64 40.396 64 31.4788C64 22.56 63.98 13.6472 63.936 13.0872C63.7311 10.477 63.2836 8.72182 62.3728 6.86667C61.6254 5.34804 60.7956 4.21394 59.5908 3.05434C57.4407 1.00017 54.8112 -0.249937 51.6778 -0.701975C50.1596 -0.921493 49.8572 -0.986499 42.0886 -1H31.5106Z" fill="url(#paint0_radial_2_1689)"/>
<path d="M31.5106 -1C17.9422 -1 13.9739 -0.985999 13.2026 -0.921993C10.4181 -0.690474 8.6854 -0.251937 6.79776 0.688143C5.34303 1.4107 4.19575 2.24827 3.06346 3.42237C1.00135 5.56356 -0.248419 8.19778 -0.700834 11.329C-0.920793 12.8492 -0.984781 13.1592 -0.997778 20.9239C-1.00278 23.5121 -0.997778 26.9184 -0.997778 31.4873C-0.997778 45.0484 -0.982781 49.0137 -0.917793 49.7838C-0.692836 52.494 -0.267915 54.1992 0.631915 56.0643C2.35159 59.6346 5.63597 62.3149 9.50525 63.3149C10.845 63.66 12.3247 63.85 14.2244 63.94C15.0292 63.975 23.2327 64 31.4411 64C39.6496 64 47.858 63.99 48.6429 63.95C50.8425 63.8465 52.1197 63.675 53.532 63.3099C57.4262 62.3049 60.6506 59.6646 62.4053 56.0443C63.2876 54.2242 63.7351 52.454 63.9375 49.8853C63.9815 49.3253 64 40.396 64 31.4788C64 22.56 63.98 13.6472 63.936 13.0872C63.7311 10.477 63.2836 8.72182 62.3728 6.86667C61.6254 5.34804 60.7956 4.21394 59.5908 3.05434C57.4407 1.00017 54.8112 -0.249937 51.6778 -0.701975C50.1596 -0.921493 49.8572 -0.986499 42.0886 -1H31.5106Z" fill="url(#paint1_radial_2_1689)"/>
<g filter="url(#filter0_ii_2_1689)">
<path fill-rule="evenodd" clip-rule="evenodd" d="M64 19.9322C64 19.1724 64.0003 18.4126 63.9956 17.6528C63.9918 17.0127 63.9845 16.3728 63.9671 15.733C63.9295 14.3386 63.8472 12.9322 63.5992 11.5534C63.3477 10.1546 62.937 8.85278 62.2898 7.58188C61.6535 6.33272 60.8224 5.18965 59.8307 4.19866C58.8393 3.20768 57.6959 2.37708 56.4463 1.7412C55.174 1.09382 53.8708 0.68326 52.4705 0.431843C51.0915 0.184232 49.6848 0.102136 48.2904 0.0644658C47.6501 0.0471455 47.0099 0.0398445 46.3695 0.0358834C45.6093 0.0312232 44.8491 0.0316115 44.0888 0.0316115L35.2619 0H28.66L19.9892 0.0316115C19.2275 0.0316115 18.4658 0.0312232 17.7041 0.0358834C17.0624 0.0398445 16.421 0.0471455 15.7795 0.0644658C14.3819 0.102136 12.9719 0.18431 11.5897 0.432231C10.1875 0.68357 8.88234 1.09398 7.60841 1.74089C6.35615 2.37685 5.21029 3.20752 4.21675 4.19866C3.22336 5.18957 2.39066 6.3324 1.75323 7.58133C1.10422 8.85286 0.692733 10.1555 0.440618 11.555C0.192387 12.9333 0.110135 14.3392 0.0723101 15.733C0.0550676 16.3728 0.0476113 17.0128 0.0437278 17.6528C0.0390677 18.4127 0 19.3566 0 20.1164L0.000233008 28.6671L0 35.3397L0.039456 44.072C0.039456 44.8328 0.0391453 45.5937 0.0437278 46.3545C0.0476113 46.9955 0.0550676 47.6363 0.0723878 48.277C0.110135 49.6731 0.192542 51.0815 0.441006 52.4623C0.693043 53.8629 1.10446 55.1666 1.75292 56.4391C2.39043 57.69 3.22328 58.8346 4.21675 59.827C5.21021 60.8194 6.35576 61.651 7.60779 62.2878C8.8825 62.9361 10.1883 63.3472 11.5913 63.5989C12.973 63.8469 14.3824 63.9292 15.7795 63.9668C16.421 63.9842 17.0625 63.9915 17.7042 63.9954C18.4659 64.0001 19.2275 63.9998 19.9892 63.9998L28.7383 64H35.3566L44.0888 63.9997C44.8491 63.9997 45.6093 64.0001 46.3695 63.9954C47.0099 63.9915 47.6501 63.9842 48.2904 63.9668C49.6853 63.9291 51.0925 63.8468 52.4722 63.5986C53.8716 63.3469 55.1742 62.9359 56.4457 62.2881C57.6956 61.6514 58.8392 60.8195 59.8307 59.827C60.8222 58.8347 61.6533 57.6904 62.2896 56.4396C62.9372 55.1665 63.3479 53.8622 63.5995 52.4606C63.8473 51.0804 63.9295 49.6726 63.9671 48.277C63.9845 47.6362 63.9918 46.9954 63.9956 46.3545C64.0004 45.5937 64 44.8328 64 44.072C64 44.072 63.9995 35.4939 63.9995 35.3397V28.6601C63.9995 28.5462 64 19.9322 64 19.9322Z" fill="url(#paint2_linear_2_1689)" fill-opacity="0.01"/>
</g>
<g filter="url(#filter1_dd_2_1689)">
<path d="M32.002 11C26.2987 11 25.5829 11.0249 23.3429 11.1269C21.1072 11.2293 19.5812 11.5832 18.246 12.1025C16.8647 12.6389 15.6931 13.3564 14.5258 14.5241C13.3577 15.6914 12.6402 16.863 12.1021 18.2438C11.5814 19.5795 11.2271 21.1059 11.1264 23.3407C11.0263 25.5807 11 26.2969 11 32.0002C11 37.7035 11.0254 38.4171 11.1269 40.6571C11.2297 42.8928 11.5836 44.4188 12.1025 45.754C12.6393 47.1353 13.3568 48.3069 14.5245 49.4742C15.6914 50.6423 16.863 51.3615 18.2433 51.8979C19.5795 52.4172 21.1059 52.7712 23.3411 52.8736C25.5812 52.9755 26.2965 53.0004 31.9993 53.0004C37.7031 53.0004 38.4167 52.9755 40.6567 52.8736C42.8923 52.7712 44.4201 52.4172 45.7562 51.8979C47.137 51.3615 48.3069 50.6423 49.4737 49.4742C50.6419 48.3069 51.3594 47.1353 51.8975 45.7545C52.4137 44.4188 52.7681 42.8923 52.8731 40.6576C52.9738 38.4175 53 37.7035 53 32.0002C53 26.2969 52.9738 25.5812 52.8731 23.3411C52.7681 21.1055 52.4137 19.5795 51.8975 18.2442C51.3594 16.863 50.6419 15.6914 49.4737 14.5241C48.3056 13.356 47.1374 12.6385 45.7549 12.1025C44.4162 11.5832 42.8893 11.2293 40.6536 11.1269C38.4136 11.0249 37.7005 11 31.9954 11H32.002ZM30.1181 14.7844C30.6772 14.7835 31.3011 14.7844 32.002 14.7844C37.609 14.7844 38.2736 14.8045 40.4878 14.9052C42.5353 14.9988 43.6466 15.3409 44.3868 15.6284C45.3669 16.009 46.0656 16.464 46.8001 17.199C47.5351 17.934 47.9901 18.634 48.3716 19.614C48.6591 20.3534 49.0016 21.4647 49.0948 23.5122C49.1955 25.726 49.2173 26.391 49.2173 31.9954C49.2173 37.5998 49.1955 38.2648 49.0948 40.4786C49.0012 42.5261 48.6591 43.6374 48.3716 44.3768C47.991 45.3568 47.5351 46.0546 46.8001 46.7892C46.0651 47.5242 45.3673 47.9792 44.3868 48.3598C43.6475 48.6486 42.5353 48.9898 40.4878 49.0835C38.274 49.1841 37.609 49.206 32.002 49.206C26.3945 49.206 25.7299 49.1841 23.5161 49.0835C21.4686 48.989 20.3573 48.6468 19.6167 48.3594C18.6366 47.9788 17.9366 47.5238 17.2016 46.7887C16.4666 46.0537 16.0116 45.3555 15.6301 44.375C15.3427 43.6357 15.0001 42.5244 14.9069 40.4769C14.8063 38.2631 14.7862 37.5981 14.7862 31.9902C14.7862 26.3822 14.8063 25.7207 14.9069 23.5069C15.0005 21.4594 15.3427 20.3482 15.6301 19.6079C16.0107 18.6279 16.4666 17.9279 17.2016 17.1929C17.9366 16.4579 18.6366 16.0029 19.6167 15.6214C20.3569 15.3326 21.4686 14.9914 23.5161 14.8973C25.4534 14.8098 26.2042 14.7835 30.1181 14.7792V14.7844ZM43.2117 18.2713C41.8204 18.2713 40.6917 19.3988 40.6917 20.7905C40.6917 22.1817 41.8204 23.3105 43.2117 23.3105C44.603 23.3105 45.7317 22.1817 45.7317 20.7905C45.7317 19.3992 44.603 18.2705 43.2117 18.2705V18.2713ZM32.002 21.2157C26.0462 21.2157 21.2175 26.0445 21.2175 32.0002C21.2175 37.956 26.0462 42.7825 32.002 42.7825C37.9577 42.7825 42.7847 37.956 42.7847 32.0002C42.7847 26.0445 37.9577 21.2157 32.002 21.2157ZM32.002 25.0001C35.8678 25.0001 39.002 28.134 39.002 32.0002C39.002 35.866 35.8678 39.0003 32.002 39.0003C28.1357 39.0003 25.0019 35.866 25.0019 32.0002C25.0019 28.134 28.1357 25.0001 32.002 25.0001Z" fill="url(#paint3_linear_2_1689)"/>
</g>
</g>
</g>
<defs>
<filter id="filter0_ii_2_1689" x="0" y="-1.67969" width="64" height="66.8555" filterUnits="userSpaceOnUse" color-interpolation-filters="sRGB">
<feFlood flood-opacity="0" result="BackgroundImageFix"/>
<feBlend mode="normal" in="SourceGraphic" in2="BackgroundImageFix" result="shape"/>
<feColorMatrix in="SourceAlpha" type="matrix" values="0 0 0 0 0 0 0 0 0 0 0 0 0 0 0 0 0 0 127 0" result="hardAlpha"/>
<feOffset dy="-1.67969"/>
<feGaussianBlur stdDeviation="1.67969"/>
<feComposite in2="hardAlpha" operator="arithmetic" k2="-1" k3="1"/>
<feColorMatrix type="matrix" values="0 0 0 0 0 0 0 0 0 0 0 0 0 0 0 0 0 0 0.3 0"/>
<feBlend mode="normal" in2="shape" result="effect1_innerShadow_2_1689"/>
<feColorMatrix in="SourceAlpha" type="matrix" values="0 0 0 0 0 0 0 0 0 0 0 0 0 0 0 0 0 0 127 0" result="hardAlpha"/>
<feOffset dy="1.17578"/>
<feGaussianBlur stdDeviation="2.6875"/>
<feComposite in2="hardAlpha" operator="arithmetic" k2="-1" k3="1"/>
<feColorMatrix type="matrix" values="0 0 0 0 1 0 0 0 0 1 0 0 0 0 1 0 0 0 0.15 0"/>
<feBlend mode="normal" in2="effect1_innerShadow_2_1689" result="effect2_innerShadow_2_1689"/>
</filter>
<filter id="filter1_dd_2_1689" x="4.39973" y="6.0498" width="55.2005" height="55.201" filterUnits="userSpaceOnUse" color-interpolation-filters="sRGB">
<feFlood flood-opacity="0" result="BackgroundImageFix"/>
<feColorMatrix in="SourceAlpha" type="matrix" values="0 0 0 0 0 0 0 0 0 0 0 0 0 0 0 0 0 0 127 0" result="hardAlpha"/>
<feMorphology radius="1.65007" operator="dilate" in="SourceAlpha" result="effect1_dropShadow_2_1689"/>
<feOffset dy="1.65007"/>
<feGaussianBlur stdDeviation="2.4751"/>
<feColorMatrix type="matrix" values="0 0 0 0 0 0 0 0 0 0 0 0 0 0 0 0 0 0 0.15 0"/>
<feBlend mode="normal" in2="BackgroundImageFix" result="effect1_dropShadow_2_1689"/>
<feColorMatrix in="SourceAlpha" type="matrix" values="0 0 0 0 0 0 0 0 0 0 0 0 0 0 0 0 0 0 127 0" result="hardAlpha"/>
<feOffset dy="0.825034"/>
<feGaussianBlur stdDeviation="0.825034"/>
<feColorMatrix type="matrix" values="0 0 0 0 0 0 0 0 0 0 0 0 0 0 0 0 0 0 0.3 0"/>
<feBlend mode="normal" in2="effect1_dropShadow_2_1689" result="effect2_dropShadow_2_1689"/>
<feBlend mode="normal" in="SourceGraphic" in2="effect2_dropShadow_2_1689" result="shape"/>
</filter>
<radialGradient id="paint0_radial_2_1689" cx="0" cy="0" r="1" gradientUnits="userSpaceOnUse" gradientTransform="translate(16.2657 69.0064) rotate(-90) scale(64.4198 59.9155)">
<stop stop-color="#FFDD55"/>
<stop offset="0.1" stop-color="#FFDD55"/>
<stop offset="0.5" stop-color="#FF543E"/>
<stop offset="1" stop-color="#C837AB"/>
</radialGradient>
<radialGradient id="paint1_radial_2_1689" cx="0" cy="0" r="1" gradientUnits="userSpaceOnUse" gradientTransform="translate(-11.8878 3.68249) rotate(78.6806) scale(28.7959 118.698)">
<stop stop-color="#3771C8"/>
<stop offset="0.128" stop-color="#3771C8"/>
<stop offset="1" stop-color="#6600FF" stop-opacity="0"/>
</radialGradient>
<linearGradient id="paint2_linear_2_1689" x1="-21.8362" y1="0" x2="-21.8362" y2="107.672" gradientUnits="userSpaceOnUse">
<stop stop-color="white"/>
<stop offset="0.489516" stop-color="#EFEFEF"/>
<stop offset="1" stop-color="#C0C0C0"/>
</linearGradient>
<linearGradient id="paint3_linear_2_1689" x1="32" y1="24" x2="32" y2="53.0004" gradientUnits="userSpaceOnUse">
<stop stop-color="white"/>
<stop offset="1" stop-color="#CEF3FF"/>
</linearGradient>
<clipPath id="clip0_2_1689">
<rect width="64" height="64" fill="white"/>
</clipPath>
</defs>
</svg>
