<svg width="64" height="64" viewBox="0 0 64 64" fill="none" xmlns="http://www.w3.org/2000/svg">
<g clip-path="url(#clip0_2_1687)">
<mask id="mask0_2_1687" style="mask-type:luminance" maskUnits="userSpaceOnUse" x="0" y="0" width="64" height="64">
<path fill-rule="evenodd" clip-rule="evenodd" d="M64 19.9322C64 19.1724 64.0003 18.4126 63.9956 17.6528C63.9918 17.0127 63.9845 16.3728 63.9671 15.733C63.9295 14.3386 63.8472 12.9322 63.5992 11.5534C63.3477 10.1546 62.937 8.85278 62.2898 7.58188C61.6535 6.33272 60.8224 5.18965 59.8307 4.19866C58.8393 3.20768 57.6959 2.37708 56.4463 1.7412C55.174 1.09382 53.8708 0.68326 52.4705 0.431843C51.0915 0.184232 49.6848 0.102136 48.2904 0.0644658C47.6501 0.0471455 47.0099 0.0398445 46.3695 0.0358834C45.6093 0.0312232 44.8491 0.0316115 44.0888 0.0316115L35.2619 0H28.66L19.9892 0.0316115C19.2275 0.0316115 18.4658 0.0312232 17.7041 0.0358834C17.0624 0.0398445 16.421 0.0471455 15.7795 0.0644658C14.3819 0.102136 12.9719 0.18431 11.5897 0.432231C10.1875 0.68357 8.88234 1.09398 7.60841 1.74089C6.35615 2.37685 5.21029 3.20752 4.21675 4.19866C3.22335 5.18957 2.39066 6.3324 1.75323 7.58133C1.10422 8.85286 0.692733 10.1555 0.440618 11.555C0.192387 12.9333 0.110135 14.3392 0.0723101 15.733C0.0550676 16.3728 0.0476113 17.0128 0.0437278 17.6528C0.0390677 18.4127 0 19.3566 0 20.1164L0.000233008 28.6671L0 35.3397L0.039456 44.072C0.039456 44.8328 0.0391453 45.5937 0.0437278 46.3545C0.0476113 46.9955 0.0550676 47.6363 0.0723878 48.277C0.110135 49.6731 0.192542 51.0815 0.441006 52.4623C0.693043 53.8629 1.10446 55.1666 1.75292 56.4391C2.39043 57.69 3.22328 58.8346 4.21675 59.827C5.21021 60.8194 6.35576 61.651 7.60779 62.2878C8.8825 62.9361 10.1883 63.3472 11.5913 63.5989C12.973 63.8469 14.3824 63.9292 15.7795 63.9668C16.421 63.9842 17.0625 63.9915 17.7042 63.9954C18.4659 64.0001 19.2275 63.9998 19.9892 63.9998L28.7383 64H35.3566L44.0888 63.9997C44.8491 63.9997 45.6093 64.0001 46.3695 63.9954C47.0099 63.9915 47.6501 63.9842 48.2904 63.9668C49.6853 63.9291 51.0925 63.8468 52.4722 63.5986C53.8716 63.3469 55.1742 62.9359 56.4457 62.2881C57.6956 61.6514 58.8392 60.8195 59.8307 59.827C60.8222 58.8347 61.6533 57.6904 62.2896 56.4396C62.9372 55.1665 63.3479 53.8622 63.5995 52.4606C63.8473 51.0804 63.9295 49.6726 63.9671 48.277C63.9845 47.6362 63.9918 46.9954 63.9956 46.3545C64.0004 45.5937 64 44.8328 64 44.072C64 44.072 63.9995 35.4939 63.9995 35.3397V28.6601C63.9995 28.5462 64 19.9322 64 19.9322Z" fill="white"/>
</mask>
<g mask="url(#mask0_2_1687)">
<rect x="-4.50485" y="-4.81555" width="70.9903" height="70.9903" fill="#0E68C2"/>
<g filter="url(#filter0_ii_2_1687)">
<path fill-rule="evenodd" clip-rule="evenodd" d="M64 19.9322C64 19.1724 64.0003 18.4126 63.9956 17.6528C63.9918 17.0127 63.9845 16.3728 63.9671 15.733C63.9295 14.3386 63.8472 12.9322 63.5992 11.5534C63.3477 10.1546 62.937 8.85278 62.2898 7.58188C61.6535 6.33272 60.8224 5.18965 59.8307 4.19866C58.8393 3.20768 57.6959 2.37708 56.4463 1.7412C55.174 1.09382 53.8708 0.68326 52.4705 0.431843C51.0915 0.184232 49.6848 0.102136 48.2904 0.0644658C47.6501 0.0471455 47.0099 0.0398445 46.3695 0.0358834C45.6093 0.0312232 44.8491 0.0316115 44.0888 0.0316115L35.2619 0H28.66L19.9892 0.0316115C19.2275 0.0316115 18.4658 0.0312232 17.7041 0.0358834C17.0624 0.0398445 16.421 0.0471455 15.7795 0.0644658C14.3819 0.102136 12.9719 0.18431 11.5897 0.432231C10.1875 0.68357 8.88234 1.09398 7.60841 1.74089C6.35615 2.37685 5.21029 3.20752 4.21675 4.19866C3.22335 5.18957 2.39066 6.3324 1.75323 7.58133C1.10422 8.85286 0.692733 10.1555 0.440618 11.555C0.192387 12.9333 0.110135 14.3392 0.0723101 15.733C0.0550676 16.3728 0.0476113 17.0128 0.0437278 17.6528C0.0390677 18.4127 0 19.3566 0 20.1164L0.000233008 28.6671L0 35.3397L0.039456 44.072C0.039456 44.8328 0.0391453 45.5937 0.0437278 46.3545C0.0476113 46.9955 0.0550676 47.6363 0.0723878 48.277C0.110135 49.6731 0.192542 51.0815 0.441006 52.4623C0.693043 53.8629 1.10446 55.1666 1.75292 56.4391C2.39043 57.69 3.22328 58.8346 4.21675 59.827C5.21021 60.8194 6.35576 61.651 7.60779 62.2878C8.8825 62.9361 10.1883 63.3472 11.5913 63.5989C12.973 63.8469 14.3824 63.9292 15.7795 63.9668C16.421 63.9842 17.0625 63.9915 17.7042 63.9954C18.4659 64.0001 19.2275 63.9998 19.9892 63.9998L28.7383 64H35.3566L44.0888 63.9997C44.8491 63.9997 45.6093 64.0001 46.3695 63.9954C47.0099 63.9915 47.6501 63.9842 48.2904 63.9668C49.6853 63.9291 51.0925 63.8468 52.4722 63.5986C53.8716 63.3469 55.1742 62.9359 56.4457 62.2881C57.6956 61.6514 58.8392 60.8195 59.8307 59.827C60.8222 58.8347 61.6533 57.6904 62.2896 56.4396C62.9372 55.1665 63.3479 53.8622 63.5995 52.4606C63.8473 51.0804 63.9295 49.6726 63.9671 48.277C63.9845 47.6362 63.9918 46.9954 63.9956 46.3545C64.0004 45.5937 64 44.8328 64 44.072C64 44.072 63.9995 35.4939 63.9995 35.3397V28.6601C63.9995 28.5462 64 19.9322 64 19.9322Z" fill="url(#paint0_linear_2_1687)" fill-opacity="0.01"/>
</g>
<g filter="url(#filter1_dddiii_2_1687)">
<path d="M12.6533 24.5018C12.6533 23.8583 13.1749 23.3367 13.8183 23.3367H19.6537C20.2972 23.3367 20.8188 23.8583 20.8188 24.5018V48.628C20.8188 49.2714 20.2972 49.793 19.6537 49.793H13.8183C13.1749 49.793 12.6533 49.2714 12.6533 48.628V24.5018ZM12 15.0079C12 13.7014 12.4537 12.5945 13.3609 11.6872C14.3045 10.7436 15.4295 10.2719 16.736 10.2719C18.0425 10.2719 19.1494 10.7436 20.0567 11.6872C21.0002 12.5945 21.472 13.7014 21.472 15.0079C21.472 16.3143 21.0002 17.4394 20.0567 18.3829C19.1494 19.2902 18.0425 19.7439 16.736 19.7439C15.4295 19.7439 14.3045 19.2902 13.3609 18.3829C12.4537 17.4394 12 16.3143 12 15.0079Z" fill="#F8F5F5"/>
<path d="M26.6852 24.5018C26.6852 23.8583 27.2068 23.3367 27.8503 23.3367H33.3591C34.0025 23.3367 34.5241 23.8583 34.5241 24.5018V26.8623C34.5241 26.8994 34.5543 26.9295 34.5914 26.9295C34.6169 26.9295 34.6402 26.9151 34.6517 26.8924C34.9048 26.3967 35.2614 25.901 35.7217 25.4053C36.1935 24.8972 36.756 24.4436 37.4093 24.0444C38.0625 23.6452 38.8065 23.3186 39.6412 23.0645C40.4759 22.8105 41.3832 22.6835 42.363 22.6835C44.4316 22.6835 46.101 23.0101 47.3712 23.6633C48.6414 24.2803 49.6213 25.1513 50.3108 26.2763C51.0367 27.4013 51.5266 28.726 51.7806 30.2502C52.0347 31.7744 52.1617 33.4257 52.1617 35.2039V48.628C52.1617 49.2714 51.6401 49.793 50.9966 49.793H45.1612C44.5178 49.793 43.9961 49.2714 43.9961 48.628V36.8371C43.9961 36.0749 43.9599 35.2947 43.8873 34.4963C43.851 33.6616 43.6877 32.8995 43.3973 32.2099C43.1433 31.5204 42.726 30.9579 42.1453 30.5224C41.6009 30.0869 40.8025 29.8691 39.7501 29.8691C38.6976 29.8691 37.8448 30.0687 37.1915 30.4679C36.5383 30.8308 36.0302 31.3389 35.6673 31.9922C35.3407 32.6091 35.1229 33.3168 35.0141 34.1152C34.9052 34.9136 34.8507 35.7483 34.8507 36.6193V48.628C34.8507 49.2714 34.3291 49.793 33.6857 49.793H27.8503C27.2068 49.793 26.6852 49.2714 26.6852 48.628V24.5018Z" fill="#F8F5F5"/>
</g>
</g>
</g>
<defs>
<filter id="filter0_ii_2_1687" x="0" y="-1.5534" width="64" height="66.6408" filterUnits="userSpaceOnUse" color-interpolation-filters="sRGB">
<feFlood flood-opacity="0" result="BackgroundImageFix"/>
<feBlend mode="normal" in="SourceGraphic" in2="BackgroundImageFix" result="shape"/>
<feColorMatrix in="SourceAlpha" type="matrix" values="0 0 0 0 0 0 0 0 0 0 0 0 0 0 0 0 0 0 127 0" result="hardAlpha"/>
<feOffset dy="-1.5534"/>
<feGaussianBlur stdDeviation="1.5534"/>
<feComposite in2="hardAlpha" operator="arithmetic" k2="-1" k3="1"/>
<feColorMatrix type="matrix" values="0 0 0 0 0 0 0 0 0 0 0 0 0 0 0 0 0 0 0.3 0"/>
<feBlend mode="normal" in2="shape" result="effect1_innerShadow_2_1687"/>
<feColorMatrix in="SourceAlpha" type="matrix" values="0 0 0 0 0 0 0 0 0 0 0 0 0 0 0 0 0 0 127 0" result="hardAlpha"/>
<feOffset dy="1.08738"/>
<feGaussianBlur stdDeviation="2.48544"/>
<feComposite in2="hardAlpha" operator="arithmetic" k2="-1" k3="1"/>
<feColorMatrix type="matrix" values="0 0 0 0 1 0 0 0 0 1 0 0 0 0 1 0 0 0 0.15 0"/>
<feBlend mode="normal" in2="effect1_innerShadow_2_1687" result="effect2_innerShadow_2_1687"/>
</filter>
<filter id="filter1_dddiii_2_1687" x="4.07769" y="2.81554" width="56.9384" height="56.2979" filterUnits="userSpaceOnUse" color-interpolation-filters="sRGB">
<feFlood flood-opacity="0" result="BackgroundImageFix"/>
<feColorMatrix in="SourceAlpha" type="matrix" values="0 0 0 0 0 0 0 0 0 0 0 0 0 0 0 0 0 0 127 0" result="hardAlpha"/>
<feOffset dx="0.466019" dy="2.48544"/>
<feGaussianBlur stdDeviation="1.94175"/>
<feColorMatrix type="matrix" values="0 0 0 0 0 0 0 0 0 0.0833333 0 0 0 0 0.166667 0 0 0 0.2 0"/>
<feBlend mode="normal" in2="BackgroundImageFix" result="effect1_dropShadow_2_1687"/>
<feColorMatrix in="SourceAlpha" type="matrix" values="0 0 0 0 0 0 0 0 0 0 0 0 0 0 0 0 0 0 127 0" result="hardAlpha"/>
<feOffset dx="0.466019" dy="0.932039"/>
<feGaussianBlur stdDeviation="4.19417"/>
<feColorMatrix type="matrix" values="0 0 0 0 0.14875 0 0 0 0 0.424375 0 0 0 0 0.7 0 0 0 0.3 0"/>
<feBlend mode="normal" in2="effect1_dropShadow_2_1687" result="effect2_dropShadow_2_1687"/>
<feColorMatrix in="SourceAlpha" type="matrix" values="0 0 0 0 0 0 0 0 0 0 0 0 0 0 0 0 0 0 127 0" result="hardAlpha"/>
<feOffset dy="0.466019"/>
<feGaussianBlur stdDeviation="1.5534"/>
<feColorMatrix type="matrix" values="0 0 0 0 0 0 0 0 0 0.157362 0 0 0 0 0.316667 0 0 0 0.2 0"/>
<feBlend mode="normal" in2="effect2_dropShadow_2_1687" result="effect3_dropShadow_2_1687"/>
<feBlend mode="normal" in="SourceGraphic" in2="effect3_dropShadow_2_1687" result="shape"/>
<feColorMatrix in="SourceAlpha" type="matrix" values="0 0 0 0 0 0 0 0 0 0 0 0 0 0 0 0 0 0 127 0" result="hardAlpha"/>
<feOffset dx="1.00971" dy="-1.39806"/>
<feGaussianBlur stdDeviation="1.5534"/>
<feComposite in2="hardAlpha" operator="arithmetic" k2="-1" k3="1"/>
<feColorMatrix type="matrix" values="0 0 0 0 0.368958 0 0 0 0 0.665729 0 0 0 0 0.9625 0 0 0 0.3 0"/>
<feBlend mode="normal" in2="shape" result="effect4_innerShadow_2_1687"/>
<feColorMatrix in="SourceAlpha" type="matrix" values="0 0 0 0 0 0 0 0 0 0 0 0 0 0 0 0 0 0 127 0" result="hardAlpha"/>
<feOffset dx="-1.86408" dy="-0.776699"/>
<feGaussianBlur stdDeviation="1.16505"/>
<feComposite in2="hardAlpha" operator="arithmetic" k2="-1" k3="1"/>
<feColorMatrix type="matrix" values="0 0 0 0 0.00177082 0 0 0 0 0.145669 0 0 0 0 0.425 0 0 0 0.16 0"/>
<feBlend mode="normal" in2="effect4_innerShadow_2_1687" result="effect5_innerShadow_2_1687"/>
<feColorMatrix in="SourceAlpha" type="matrix" values="0 0 0 0 0 0 0 0 0 0 0 0 0 0 0 0 0 0 127 0" result="hardAlpha"/>
<feOffset dx="0.621359" dy="0.31068"/>
<feGaussianBlur stdDeviation="1.5534"/>
<feComposite in2="hardAlpha" operator="arithmetic" k2="-1" k3="1"/>
<feColorMatrix type="matrix" values="0 0 0 0 0.745833 0 0 0 0 0.878 0 0 0 0 1 0 0 0 0.35 0"/>
<feBlend mode="normal" in2="effect5_innerShadow_2_1687" result="effect6_innerShadow_2_1687"/>
</filter>
<linearGradient id="paint0_linear_2_1687" x1="-21.8362" y1="0" x2="-21.8362" y2="107.672" gradientUnits="userSpaceOnUse">
<stop stop-color="white"/>
<stop offset="0.489516" stop-color="#EFEFEF"/>
<stop offset="1" stop-color="#C0C0C0"/>
</linearGradient>
<clipPath id="clip0_2_1687">
<rect width="64" height="64" fill="white"/>
</clipPath>
</defs>
</svg>
