<svg width="64" height="64" viewBox="0 0 64 64" fill="none" xmlns="http://www.w3.org/2000/svg">
<g clip-path="url(#clip0_2_1685)">
<mask id="mask0_2_1685" style="mask-type:luminance" maskUnits="userSpaceOnUse" x="0" y="0" width="64" height="64">
<path fill-rule="evenodd" clip-rule="evenodd" d="M64 19.9322C64 19.1724 64.0003 18.4126 63.9956 17.6528C63.9918 17.0127 63.9845 16.3728 63.9671 15.733C63.9295 14.3386 63.8472 12.9322 63.5992 11.5534C63.3477 10.1546 62.937 8.85278 62.2898 7.58188C61.6535 6.33272 60.8224 5.18965 59.8307 4.19866C58.8393 3.20768 57.6959 2.37708 56.4463 1.7412C55.174 1.09382 53.8708 0.68326 52.4705 0.431843C51.0915 0.184232 49.6848 0.102136 48.2904 0.0644658C47.6501 0.0471455 47.0099 0.0398445 46.3695 0.0358834C45.6093 0.0312232 44.8491 0.0316115 44.0888 0.0316115L35.2619 0H28.66L19.9892 0.0316115C19.2275 0.0316115 18.4658 0.0312232 17.7041 0.0358834C17.0624 0.0398445 16.421 0.0471455 15.7795 0.0644658C14.3819 0.102136 12.9719 0.18431 11.5897 0.432231C10.1875 0.68357 8.88234 1.09398 7.60841 1.74089C6.35615 2.37685 5.21029 3.20752 4.21675 4.19866C3.22335 5.18957 2.39066 6.3324 1.75323 7.58133C1.10422 8.85286 0.692733 10.1555 0.440618 11.555C0.192387 12.9333 0.110135 14.3392 0.0723101 15.733C0.0550676 16.3728 0.0476113 17.0128 0.0437278 17.6528C0.0390677 18.4127 0 19.3566 0 20.1164L0.000233008 28.6671L0 35.3397L0.039456 44.072C0.039456 44.8328 0.0391453 45.5937 0.0437278 46.3545C0.0476113 46.9955 0.0550676 47.6363 0.0723878 48.277C0.110135 49.6731 0.192542 51.0815 0.441006 52.4623C0.693043 53.8629 1.10446 55.1666 1.75292 56.4391C2.39043 57.69 3.22328 58.8346 4.21675 59.827C5.21021 60.8194 6.35576 61.651 7.60779 62.2878C8.8825 62.9361 10.1883 63.3472 11.5913 63.5989C12.973 63.8469 14.3824 63.9292 15.7795 63.9668C16.421 63.9842 17.0625 63.9915 17.7042 63.9954C18.4659 64.0001 19.2275 63.9998 19.9892 63.9998L28.7383 64H35.3566L44.0888 63.9997C44.8491 63.9997 45.6093 64.0001 46.3695 63.9954C47.0099 63.9915 47.6501 63.9842 48.2904 63.9668C49.6853 63.9291 51.0925 63.8468 52.4722 63.5986C53.8716 63.3469 55.1742 62.9359 56.4457 62.2881C57.6956 61.6514 58.8392 60.8195 59.8307 59.827C60.8222 58.8347 61.6533 57.6904 62.2896 56.4396C62.9372 55.1665 63.3479 53.8622 63.5995 52.4606C63.8473 51.0804 63.9295 49.6726 63.9671 48.277C63.9845 47.6362 63.9918 46.9954 63.9956 46.3545C64.0004 45.5937 64 44.8328 64 44.072C64 44.072 63.9995 35.4939 63.9995 35.3397V28.6601C63.9995 28.5462 64 19.9322 64 19.9322Z" fill="white"/>
</mask>
<g mask="url(#mask0_2_1685)">
<rect x="-4.50485" y="-4.81555" width="70.9903" height="70.9903" fill="#2E0315"/>
<path d="M32 71.5C54.0914 71.5 72 53.5914 72 31.5C72 9.40861 54.0914 -8.5 32 -8.5C9.90861 -8.5 -8 9.40861 -8 31.5C-8 53.5914 9.90861 71.5 32 71.5Z" fill="#7D2AE7"/>
<path d="M32 71.5C54.0914 71.5 72 53.5914 72 31.5C72 9.40861 54.0914 -8.5 32 -8.5C9.90861 -8.5 -8 9.40861 -8 31.5C-8 53.5914 9.90861 71.5 32 71.5Z" fill="url(#paint0_radial_2_1685)"/>
<path d="M32 71.5C54.0914 71.5 72 53.5914 72 31.5C72 9.40861 54.0914 -8.5 32 -8.5C9.90861 -8.5 -8 9.40861 -8 31.5C-8 53.5914 9.90861 71.5 32 71.5Z" fill="url(#paint1_radial_2_1685)"/>
<path d="M32 71.5C54.0914 71.5 72 53.5914 72 31.5C72 9.40861 54.0914 -8.5 32 -8.5C9.90861 -8.5 -8 9.40861 -8 31.5C-8 53.5914 9.90861 71.5 32 71.5Z" fill="url(#paint2_radial_2_1685)"/>
<path d="M32 71.5C54.0914 71.5 72 53.5914 72 31.5C72 9.40861 54.0914 -8.5 32 -8.5C9.90861 -8.5 -8 9.40861 -8 31.5C-8 53.5914 9.90861 71.5 32 71.5Z" fill="url(#paint3_radial_2_1685)"/>
<g filter="url(#filter0_ii_2_1685)">
<path fill-rule="evenodd" clip-rule="evenodd" d="M64 19.9322C64 19.1724 64.0003 18.4126 63.9956 17.6528C63.9918 17.0127 63.9845 16.3728 63.9671 15.733C63.9295 14.3386 63.8472 12.9322 63.5992 11.5534C63.3477 10.1546 62.937 8.85278 62.2898 7.58188C61.6535 6.33272 60.8224 5.18965 59.8307 4.19866C58.8393 3.20768 57.6959 2.37708 56.4463 1.7412C55.174 1.09382 53.8708 0.68326 52.4705 0.431843C51.0915 0.184232 49.6848 0.102136 48.2904 0.0644658C47.6501 0.0471455 47.0099 0.0398445 46.3695 0.0358834C45.6093 0.0312232 44.8491 0.0316115 44.0888 0.0316115L35.2619 0H28.66L19.9892 0.0316115C19.2275 0.0316115 18.4658 0.0312232 17.7041 0.0358834C17.0624 0.0398445 16.421 0.0471455 15.7795 0.0644658C14.3819 0.102136 12.9719 0.18431 11.5897 0.432231C10.1875 0.68357 8.88234 1.09398 7.60841 1.74089C6.35615 2.37685 5.21029 3.20752 4.21675 4.19866C3.22336 5.18957 2.39066 6.3324 1.75323 7.58133C1.10422 8.85286 0.692733 10.1555 0.440618 11.555C0.192387 12.9333 0.110135 14.3392 0.0723101 15.733C0.0550676 16.3728 0.0476113 17.0128 0.0437278 17.6528C0.0390677 18.4127 0 19.3566 0 20.1164L0.000233008 28.6671L0 35.3397L0.039456 44.072C0.039456 44.8328 0.0391453 45.5937 0.0437278 46.3545C0.0476113 46.9955 0.0550676 47.6363 0.0723878 48.277C0.110135 49.6731 0.192542 51.0815 0.441006 52.4623C0.693043 53.8629 1.10446 55.1666 1.75292 56.4391C2.39043 57.69 3.22328 58.8346 4.21675 59.827C5.21021 60.8194 6.35576 61.651 7.60779 62.2878C8.8825 62.9361 10.1883 63.3472 11.5913 63.5989C12.973 63.8469 14.3824 63.9292 15.7795 63.9668C16.421 63.9842 17.0625 63.9915 17.7042 63.9954C18.4659 64.0001 19.2275 63.9998 19.9892 63.9998L28.7383 64H35.3566L44.0888 63.9997C44.8491 63.9997 45.6093 64.0001 46.3695 63.9954C47.0099 63.9915 47.6501 63.9842 48.2904 63.9668C49.6853 63.9291 51.0925 63.8468 52.4722 63.5986C53.8716 63.3469 55.1742 62.9359 56.4457 62.2881C57.6956 61.6514 58.8392 60.8195 59.8307 59.827C60.8222 58.8347 61.6533 57.6904 62.2896 56.4396C62.9372 55.1665 63.3479 53.8622 63.5995 52.4606C63.8473 51.0804 63.9295 49.6726 63.9671 48.277C63.9845 47.6362 63.9918 46.9954 63.9956 46.3545C64.0004 45.5937 64 44.8328 64 44.072C64 44.072 63.9995 35.4939 63.9995 35.3397V28.6601C63.9995 28.5462 64 19.9322 64 19.9322Z" fill="url(#paint4_linear_2_1685)" fill-opacity="0.01"/>
</g>
<g filter="url(#filter1_d_2_1685)">
<path d="M57.4747 35.1415C57.3883 35.1415 57.3096 35.1973 57.2689 35.3142C56.7479 36.801 56.044 37.6854 55.4645 37.6854C55.1316 37.6854 54.9969 37.3144 54.9969 36.7325C54.9969 35.2763 55.8685 32.1884 56.3082 30.7805C56.3591 30.6101 56.3921 30.4577 56.3921 30.3281C56.3921 29.9189 56.1684 29.7181 55.6144 29.7181C55.0171 29.7181 54.3743 29.9519 53.7491 31.0473C53.5331 30.0816 52.8799 29.6596 51.9675 29.6596C50.9128 29.6596 49.8937 30.3382 49.0551 31.4387C48.2165 32.5391 47.2303 32.9001 46.4883 32.7221C47.0219 31.4157 47.2202 30.4398 47.2202 29.7156C47.2202 28.5795 46.6585 27.8934 45.7513 27.8934C44.3712 27.8934 43.5759 29.2098 43.5759 30.5949C43.5759 31.6649 44.0612 32.7652 45.1287 33.299C44.2341 35.3219 42.9278 37.1518 42.4322 37.1518C41.7919 37.1518 41.6036 34.0182 41.6392 31.7766C41.6621 30.4906 41.7689 30.4246 41.7689 30.0358C41.7689 29.8121 41.624 29.6596 41.0421 29.6596C39.6849 29.6596 39.2656 30.8085 39.2021 32.1274C39.1816 32.6287 39.1031 33.1259 38.9683 33.6091C38.4015 35.632 37.2324 37.167 36.4701 37.167C36.1167 37.167 36.0202 36.8136 36.0202 36.3512C36.0202 34.8951 36.836 33.0753 36.836 31.5225C36.836 30.3815 36.3354 29.6598 35.3926 29.6598C34.2819 29.6598 32.813 30.9812 31.4229 33.4566C31.8803 31.5607 32.0685 29.7258 30.7138 29.7258C30.4199 29.7302 30.1314 29.8051 29.8726 29.9444C29.7858 29.9852 29.7133 30.051 29.6643 30.1335C29.6154 30.2159 29.5923 30.3111 29.5981 30.4068C29.7277 32.4248 27.9716 37.5939 26.307 37.5939C26.0046 37.5939 25.8571 37.2661 25.8571 36.7375C25.8571 35.2788 26.7263 32.1985 27.1634 30.7881C27.2193 30.605 27.2499 30.4475 27.2499 30.3103C27.2499 29.924 27.0109 29.7258 26.4696 29.7258C25.8749 29.7258 25.2295 29.9519 24.6069 31.0473C24.3883 30.0816 23.7351 29.6596 22.8227 29.6596C21.3259 29.6596 19.6536 31.2431 18.9192 33.3067C17.9356 36.0615 15.9533 38.7224 13.2848 38.7224C10.8629 38.7224 9.58458 36.707 9.58458 33.5226C9.58458 28.9252 12.9596 25.1691 15.4628 25.1691C16.6599 25.1691 17.2317 25.9315 17.2317 27.1005C17.2317 28.516 16.4412 29.1742 16.4412 29.713C16.4412 29.8783 16.5785 30.0409 16.8504 30.0409C17.9382 30.0409 19.219 28.7626 19.219 27.0192C19.219 25.2757 17.8035 24 15.3002 24C11.1628 24 7 28.1628 7 33.4972C7 37.7414 9.09408 40.3005 12.7155 40.3005C15.1858 40.3005 17.3435 38.3793 18.5074 36.1377C18.6396 37.9955 19.4833 38.9663 20.7693 38.9663C21.9129 38.9663 22.8379 38.2853 23.5444 37.0883C23.8165 38.3411 24.5382 38.9536 25.476 38.9536C26.5509 38.9536 27.4506 38.2725 28.307 37.0069C28.2944 38.0007 28.5206 38.9359 29.3821 38.9359C29.7886 38.9359 30.2741 38.8417 30.3606 38.486C31.2678 34.7349 33.5093 31.6724 34.1956 31.6724C34.3988 31.6724 34.4547 31.8682 34.4547 32.0994C34.4547 33.1186 33.7355 35.2076 33.7355 36.5419C33.7355 37.9827 34.3481 38.9359 35.6136 38.9359C37.0165 38.9359 38.4422 37.2178 39.3926 34.707C39.6901 37.0527 40.3331 38.9459 41.3394 38.9459C42.5745 38.9459 44.7677 36.3461 46.0969 33.5937C46.6178 33.6599 47.4006 33.6421 48.1528 33.1109C47.8326 33.9216 47.6447 34.8087 47.6447 35.6955C47.6447 38.2497 48.8644 38.9663 49.914 38.9663C51.0551 38.9663 51.9803 38.2853 52.6892 37.0883C52.9231 38.1684 53.5203 38.951 54.6182 38.951C56.3361 38.951 57.828 37.1949 57.828 35.7539C57.828 35.3728 57.6654 35.1415 57.4747 35.1415ZM21.8164 37.5507C21.1225 37.5507 20.8506 36.8518 20.8506 35.8099C20.8506 34.0004 22.0883 30.9786 23.3971 30.9786C23.969 30.9786 24.185 31.6522 24.185 32.4756C24.185 34.313 23.0084 37.5507 21.8164 37.5507ZM45.581 32.1503C45.1667 31.6572 45.0168 30.9863 45.0168 30.389C45.0168 29.6521 45.2862 29.0294 45.6089 29.0294C45.9317 29.0294 46.0308 29.3471 46.0308 29.7893C46.0308 30.5288 45.7665 31.6089 45.581 32.1503ZM50.9611 37.5507C50.2674 37.5507 49.9954 36.7477 49.9954 35.8099C49.9954 34.064 51.2331 30.9786 52.5521 30.9786C53.1239 30.9786 53.3272 31.6471 53.3272 32.4756C53.3272 34.313 52.1708 37.5507 50.9611 37.5507Z" fill="url(#paint5_linear_2_1685)"/>
</g>
</g>
</g>
<defs>
<filter id="filter0_ii_2_1685" x="0" y="-1.67969" width="64" height="66.8555" filterUnits="userSpaceOnUse" color-interpolation-filters="sRGB">
<feFlood flood-opacity="0" result="BackgroundImageFix"/>
<feBlend mode="normal" in="SourceGraphic" in2="BackgroundImageFix" result="shape"/>
<feColorMatrix in="SourceAlpha" type="matrix" values="0 0 0 0 0 0 0 0 0 0 0 0 0 0 0 0 0 0 127 0" result="hardAlpha"/>
<feOffset dy="-1.67969"/>
<feGaussianBlur stdDeviation="1.67969"/>
<feComposite in2="hardAlpha" operator="arithmetic" k2="-1" k3="1"/>
<feColorMatrix type="matrix" values="0 0 0 0 0 0 0 0 0 0 0 0 0 0 0 0 0 0 0.3 0"/>
<feBlend mode="normal" in2="shape" result="effect1_innerShadow_2_1685"/>
<feColorMatrix in="SourceAlpha" type="matrix" values="0 0 0 0 0 0 0 0 0 0 0 0 0 0 0 0 0 0 127 0" result="hardAlpha"/>
<feOffset dy="1.17578"/>
<feGaussianBlur stdDeviation="2.6875"/>
<feComposite in2="hardAlpha" operator="arithmetic" k2="-1" k3="1"/>
<feColorMatrix type="matrix" values="0 0 0 0 1 0 0 0 0 1 0 0 0 0 1 0 0 0 0.15 0"/>
<feBlend mode="normal" in2="effect1_innerShadow_2_1685" result="effect2_innerShadow_2_1685"/>
</filter>
<filter id="filter1_d_2_1685" x="5.6" y="23.6" width="53.628" height="19.1005" filterUnits="userSpaceOnUse" color-interpolation-filters="sRGB">
<feFlood flood-opacity="0" result="BackgroundImageFix"/>
<feColorMatrix in="SourceAlpha" type="matrix" values="0 0 0 0 0 0 0 0 0 0 0 0 0 0 0 0 0 0 127 0" result="hardAlpha"/>
<feOffset dy="1"/>
<feGaussianBlur stdDeviation="0.7"/>
<feComposite in2="hardAlpha" operator="out"/>
<feColorMatrix type="matrix" values="0 0 0 0 0 0 0 0 0 0 0 0 0 0 0 0 0 0 0.25 0"/>
<feBlend mode="normal" in2="BackgroundImageFix" result="effect1_dropShadow_2_1685"/>
<feBlend mode="normal" in="SourceGraphic" in2="effect1_dropShadow_2_1685" result="shape"/>
</filter>
<radialGradient id="paint0_radial_2_1685" cx="0" cy="0" r="1" gradientUnits="userSpaceOnUse" gradientTransform="translate(7.42965 62.4056) rotate(-49.416) scale(61.8733)">
<stop stop-color="#6420FF"/>
<stop offset="1" stop-color="#6420FF" stop-opacity="0"/>
</radialGradient>
<radialGradient id="paint1_radial_2_1685" cx="0" cy="0" r="1" gradientUnits="userSpaceOnUse" gradientTransform="translate(13.1788 0.59455) rotate(54.703) scale(69.7736)">
<stop stop-color="#00C4CC"/>
<stop offset="1" stop-color="#00C4CC" stop-opacity="0"/>
</radialGradient>
<radialGradient id="paint2_radial_2_1685" cx="0" cy="0" r="1" gradientUnits="userSpaceOnUse" gradientTransform="translate(7.45263 62.4053) rotate(-45.1954) scale(61.1242 28.1118)">
<stop stop-color="#6420FF"/>
<stop offset="1" stop-color="#6420FF" stop-opacity="0"/>
</radialGradient>
<radialGradient id="paint3_radial_2_1685" cx="0" cy="0" r="1" gradientUnits="userSpaceOnUse" gradientTransform="translate(24.7158 2.27895) rotate(66.5198) scale(62.9836 105.512)">
<stop stop-color="#00C4CC"/>
<stop offset="1" stop-color="#00C4CC" stop-opacity="0"/>
</radialGradient>
<linearGradient id="paint4_linear_2_1685" x1="-21.8362" y1="0" x2="-21.8362" y2="107.672" gradientUnits="userSpaceOnUse">
<stop stop-color="white"/>
<stop offset="0.489516" stop-color="#EFEFEF"/>
<stop offset="1" stop-color="#C0C0C0"/>
</linearGradient>
<linearGradient id="paint5_linear_2_1685" x1="32" y1="32" x2="32.414" y2="40.3005" gradientUnits="userSpaceOnUse">
<stop stop-color="white"/>
<stop offset="1" stop-color="#89D4FF"/>
</linearGradient>
<clipPath id="clip0_2_1685">
<rect width="64" height="64" fill="white"/>
</clipPath>
</defs>
</svg>
