<svg width="64" height="64" viewBox="0 0 64 64" fill="none" xmlns="http://www.w3.org/2000/svg">
<g clip-path="url(#clip0_43_246)">
<mask id="mask0_43_246" style="mask-type:luminance" maskUnits="userSpaceOnUse" x="0" y="0" width="64" height="64">
<path fill-rule="evenodd" clip-rule="evenodd" d="M64 19.9322C64 19.1724 64.0003 18.4126 63.9956 17.6528C63.9918 17.0127 63.9845 16.3728 63.9671 15.733C63.9295 14.3386 63.8472 12.9322 63.5992 11.5534C63.3477 10.1546 62.937 8.85278 62.2898 7.58188C61.6535 6.33272 60.8224 5.18965 59.8307 4.19866C58.8393 3.20768 57.6959 2.37708 56.4463 1.7412C55.174 1.09382 53.8708 0.68326 52.4705 0.431843C51.0915 0.184232 49.6848 0.102136 48.2904 0.0644658C47.6501 0.0471455 47.0099 0.0398445 46.3695 0.0358834C45.6093 0.0312232 44.8491 0.0316115 44.0888 0.0316115L35.2619 0H28.66L19.9892 0.0316115C19.2275 0.0316115 18.4658 0.0312232 17.7041 0.0358834C17.0624 0.0398445 16.421 0.0471455 15.7795 0.0644658C14.3819 0.102136 12.9719 0.18431 11.5897 0.432231C10.1875 0.68357 8.88234 1.09398 7.60841 1.74089C6.35615 2.37685 5.21029 3.20752 4.21675 4.19866C3.22335 5.18957 2.39066 6.3324 1.75323 7.58133C1.10422 8.85286 0.692733 10.1555 0.440618 11.555C0.192387 12.9333 0.110135 14.3392 0.0723101 15.733C0.0550676 16.3728 0.0476113 17.0128 0.0437278 17.6528C0.0390677 18.4127 0 19.3566 0 20.1164L0.000233008 28.6671L0 35.3397L0.039456 44.072C0.039456 44.8328 0.0391453 45.5937 0.0437278 46.3545C0.0476113 46.9955 0.0550676 47.6363 0.0723878 48.277C0.110135 49.6731 0.192542 51.0815 0.441006 52.4623C0.693043 53.8629 1.10446 55.1666 1.75292 56.4391C2.39043 57.69 3.22328 58.8346 4.21675 59.827C5.21021 60.8194 6.35576 61.651 7.60779 62.2878C8.8825 62.9361 10.1883 63.3472 11.5913 63.5989C12.973 63.8469 14.3824 63.9292 15.7795 63.9668C16.421 63.9842 17.0625 63.9915 17.7042 63.9954C18.4659 64.0001 19.2275 63.9998 19.9892 63.9998L28.7383 64H35.3566L44.0888 63.9997C44.8491 63.9997 45.6093 64.0001 46.3695 63.9954C47.0099 63.9915 47.6501 63.9842 48.2904 63.9668C49.6853 63.9291 51.0925 63.8468 52.4722 63.5986C53.8716 63.3469 55.1742 62.9359 56.4457 62.2881C57.6956 61.6514 58.8392 60.8195 59.8307 59.827C60.8222 58.8347 61.6533 57.6904 62.2896 56.4396C62.9372 55.1665 63.3479 53.8622 63.5995 52.4606C63.8473 51.0804 63.9295 49.6726 63.9671 48.277C63.9845 47.6362 63.9918 46.9954 63.9956 46.3545C64.0004 45.5937 64 44.8328 64 44.072C64 44.072 63.9995 35.4939 63.9995 35.3397V28.6601C63.9995 28.5462 64 19.9322 64 19.9322Z" fill="white"/>
</mask>
<g mask="url(#mask0_43_246)">
<rect x="-4.50485" y="-4.81555" width="70.9903" height="70.9903" fill="#101010"/>
<g filter="url(#filter0_ii_43_246)">
<path fill-rule="evenodd" clip-rule="evenodd" d="M64 19.9322C64 19.1724 64.0003 18.4126 63.9956 17.6528C63.9918 17.0127 63.9845 16.3728 63.9671 15.733C63.9295 14.3386 63.8472 12.9322 63.5992 11.5534C63.3477 10.1546 62.937 8.85278 62.2898 7.58188C61.6535 6.33272 60.8224 5.18965 59.8307 4.19866C58.8393 3.20768 57.6959 2.37708 56.4463 1.7412C55.174 1.09382 53.8708 0.68326 52.4705 0.431843C51.0915 0.184232 49.6848 0.102136 48.2904 0.0644658C47.6501 0.0471455 47.0099 0.0398445 46.3695 0.0358834C45.6093 0.0312232 44.8491 0.0316115 44.0888 0.0316115L35.2619 0H28.66L19.9892 0.0316115C19.2275 0.0316115 18.4658 0.0312232 17.7041 0.0358834C17.0624 0.0398445 16.421 0.0471455 15.7795 0.0644658C14.3819 0.102136 12.9719 0.18431 11.5897 0.432231C10.1875 0.68357 8.88234 1.09398 7.60841 1.74089C6.35615 2.37685 5.21029 3.20752 4.21675 4.19866C3.22335 5.18957 2.39066 6.3324 1.75323 7.58133C1.10422 8.85286 0.692733 10.1555 0.440618 11.555C0.192387 12.9333 0.110135 14.3392 0.0723101 15.733C0.0550676 16.3728 0.0476113 17.0128 0.0437278 17.6528C0.0390677 18.4127 0 19.3566 0 20.1164L0.000233008 28.6671L0 35.3397L0.039456 44.072C0.039456 44.8328 0.0391453 45.5937 0.0437278 46.3545C0.0476113 46.9955 0.0550676 47.6363 0.0723878 48.277C0.110135 49.6731 0.192542 51.0815 0.441006 52.4623C0.693043 53.8629 1.10446 55.1666 1.75292 56.4391C2.39043 57.69 3.22328 58.8346 4.21675 59.827C5.21021 60.8194 6.35576 61.651 7.60779 62.2878C8.8825 62.9361 10.1883 63.3472 11.5913 63.5989C12.973 63.8469 14.3824 63.9292 15.7795 63.9668C16.421 63.9842 17.0625 63.9915 17.7042 63.9954C18.4659 64.0001 19.2275 63.9998 19.9892 63.9998L28.7383 64H35.3566L44.0888 63.9997C44.8491 63.9997 45.6093 64.0001 46.3695 63.9954C47.0099 63.9915 47.6501 63.9842 48.2904 63.9668C49.6853 63.9291 51.0925 63.8468 52.4722 63.5986C53.8716 63.3469 55.1742 62.9359 56.4457 62.2881C57.6956 61.6514 58.8392 60.8195 59.8307 59.827C60.8222 58.8347 61.6533 57.6904 62.2896 56.4396C62.9372 55.1665 63.3479 53.8622 63.5995 52.4606C63.8473 51.0804 63.9295 49.6726 63.9671 48.277C63.9845 47.6362 63.9918 46.9954 63.9956 46.3545C64.0004 45.5937 64 44.8328 64 44.072C64 44.072 63.9995 35.4939 63.9995 35.3397V28.6601C63.9995 28.5462 64 19.9322 64 19.9322Z" fill="url(#paint0_linear_43_246)" fill-opacity="0.01"/>
</g>
<path d="M33 40.996C37.9706 40.996 42 36.9666 42 31.996C42 27.0255 37.9706 22.996 33 22.996C28.0294 22.996 24 27.0255 24 31.996C24 36.9666 28.0294 40.996 33 40.996Z" fill="url(#paint1_linear_43_246)"/>
<path d="M33 23H48.5859C47.0065 20.2635 44.7346 17.9911 41.9984 16.4112C39.2622 14.8314 36.1583 13.9997 32.9988 13.9999C29.8393 14.0002 26.7355 14.8322 23.9996 16.4125C21.2636 17.9927 18.9919 20.2655 17.413 23.0021L25.2059 36.5L25.2129 36.4982C24.4202 35.1311 24.0018 33.5792 24 31.999C23.9982 30.4187 24.4131 28.8659 25.2028 27.497C25.9925 26.1282 27.129 24.9918 28.4979 24.2022C29.8669 23.4127 31.4197 22.998 33 23Z" fill="url(#paint2_linear_43_246)"/>
<path d="M33 39.125C36.935 39.125 40.125 35.935 40.125 32C40.125 28.065 36.935 24.875 33 24.875C29.065 24.875 25.875 28.065 25.875 32C25.875 35.935 29.065 39.125 33 39.125Z" fill="url(#paint3_linear_43_246)"/>
<path d="M40.7935 36.5022L33.0005 50C36.16 50.0004 39.264 49.169 42.0002 47.5893C44.7365 46.0097 47.0087 43.7374 48.5882 41.0011C50.1678 38.2648 50.9991 35.1608 50.9985 32.0013C50.9979 28.8418 50.1655 25.7381 48.585 23.0023H32.9992L32.9973 23.0093C34.5776 23.0062 36.1307 23.4199 37.5002 24.2085C38.8696 24.997 40.007 26.1327 40.7976 27.501C41.5882 28.8693 42.0041 30.4219 42.0034 32.0022C42.0027 33.5824 41.5853 35.1346 40.7935 36.5022Z" fill="url(#paint4_linear_43_246)"/>
<path d="M25.2064 36.5023L17.4135 23.0045C15.8333 25.7405 15.0014 28.8443 15.0013 32.0038C15.0011 35.1634 15.8329 38.2672 17.4128 41.0034C18.9928 43.7395 21.2653 46.0114 24.0018 47.5907C26.7383 49.1699 29.8424 50.0009 33.0019 50L40.7948 36.5022L40.7898 36.4971C40.0023 37.8672 38.8675 39.0054 37.4998 39.7971C36.1321 40.5888 34.5799 41.0059 32.9996 41.0064C31.4194 41.0069 29.8669 40.5909 28.4987 39.8001C27.1305 39.0094 25.9949 37.8719 25.2064 36.5023Z" fill="url(#paint5_linear_43_246)"/>
</g>
</g>
<defs>
<filter id="filter0_ii_43_246" x="0" y="-1.5534" width="64" height="66.6408" filterUnits="userSpaceOnUse" color-interpolation-filters="sRGB">
<feFlood flood-opacity="0" result="BackgroundImageFix"/>
<feBlend mode="normal" in="SourceGraphic" in2="BackgroundImageFix" result="shape"/>
<feColorMatrix in="SourceAlpha" type="matrix" values="0 0 0 0 0 0 0 0 0 0 0 0 0 0 0 0 0 0 127 0" result="hardAlpha"/>
<feOffset dy="-1.5534"/>
<feGaussianBlur stdDeviation="1.5534"/>
<feComposite in2="hardAlpha" operator="arithmetic" k2="-1" k3="1"/>
<feColorMatrix type="matrix" values="0 0 0 0 0 0 0 0 0 0 0 0 0 0 0 0 0 0 0.3 0"/>
<feBlend mode="normal" in2="shape" result="effect1_innerShadow_43_246"/>
<feColorMatrix in="SourceAlpha" type="matrix" values="0 0 0 0 0 0 0 0 0 0 0 0 0 0 0 0 0 0 127 0" result="hardAlpha"/>
<feOffset dy="1.08738"/>
<feGaussianBlur stdDeviation="2.48544"/>
<feComposite in2="hardAlpha" operator="arithmetic" k2="-1" k3="1"/>
<feColorMatrix type="matrix" values="0 0 0 0 1 0 0 0 0 1 0 0 0 0 1 0 0 0 0.15 0"/>
<feBlend mode="normal" in2="effect1_innerShadow_43_246" result="effect2_innerShadow_43_246"/>
</filter>
<linearGradient id="paint0_linear_43_246" x1="-21.8362" y1="0" x2="-21.8362" y2="107.672" gradientUnits="userSpaceOnUse">
<stop stop-color="white"/>
<stop offset="0.489516" stop-color="#EFEFEF"/>
<stop offset="1" stop-color="#C0C0C0"/>
</linearGradient>
<linearGradient id="paint1_linear_43_246" x1="33" y1="22.996" x2="33" y2="40.996" gradientUnits="userSpaceOnUse">
<stop stop-color="white"/>
<stop offset="1" stop-color="#CFCFCF"/>
</linearGradient>
<linearGradient id="paint2_linear_43_246" x1="32.9994" y1="13.9999" x2="32.9994" y2="36.5" gradientUnits="userSpaceOnUse">
<stop stop-color="#EB4335"/>
<stop offset="1" stop-color="#A6251A"/>
</linearGradient>
<linearGradient id="paint3_linear_43_246" x1="32.9155" y1="25.1885" x2="36.0742" y2="38.3937" gradientUnits="userSpaceOnUse">
<stop stop-color="#4285F4"/>
<stop offset="1" stop-color="#134598"/>
</linearGradient>
<linearGradient id="paint4_linear_43_246" x1="40.3601" y1="27.5367" x2="32.856" y2="44.7757" gradientUnits="userSpaceOnUse">
<stop stop-color="#FBBC05"/>
<stop offset="1" stop-color="#C98115"/>
</linearGradient>
<linearGradient id="paint5_linear_43_246" x1="27.6886" y1="29.4342" x2="31.0631" y2="47.9278" gradientUnits="userSpaceOnUse">
<stop stop-color="#34A853"/>
<stop offset="1" stop-color="#0E6E27"/>
</linearGradient>
<clipPath id="clip0_43_246">
<rect width="64" height="64" fill="white"/>
</clipPath>
</defs>
</svg>
