<svg width="64" height="64" viewBox="0 0 64 64" fill="none" xmlns="http://www.w3.org/2000/svg">
<g clip-path="url(#clip0_43_534)">
<mask id="mask0_43_534" style="mask-type:luminance" maskUnits="userSpaceOnUse" x="0" y="0" width="64" height="64">
<path fill-rule="evenodd" clip-rule="evenodd" d="M64 19.9322C64 19.1724 64.0003 18.4126 63.9956 17.6528C63.9918 17.0127 63.9845 16.3728 63.9671 15.733C63.9295 14.3386 63.8472 12.9322 63.5992 11.5534C63.3477 10.1546 62.937 8.85278 62.2898 7.58188C61.6535 6.33272 60.8224 5.18965 59.8307 4.19866C58.8393 3.20768 57.6959 2.37708 56.4463 1.7412C55.174 1.09382 53.8708 0.68326 52.4705 0.431843C51.0915 0.184232 49.6848 0.102136 48.2904 0.0644658C47.6501 0.0471455 47.0099 0.0398445 46.3695 0.0358834C45.6093 0.0312232 44.8491 0.0316115 44.0888 0.0316115L35.2619 0H28.66L19.9892 0.0316115C19.2275 0.0316115 18.4658 0.0312232 17.7041 0.0358834C17.0624 0.0398445 16.421 0.0471455 15.7795 0.0644658C14.3819 0.102136 12.9719 0.18431 11.5897 0.432231C10.1875 0.68357 8.88234 1.09398 7.60841 1.74089C6.35615 2.37685 5.21029 3.20752 4.21675 4.19866C3.22335 5.18957 2.39066 6.3324 1.75323 7.58133C1.10422 8.85286 0.692733 10.1555 0.440618 11.555C0.192387 12.9333 0.110135 14.3392 0.0723101 15.733C0.0550676 16.3728 0.0476113 17.0128 0.0437278 17.6528C0.0390677 18.4127 0 19.3566 0 20.1164L0.000233008 28.6671L0 35.3397L0.039456 44.072C0.039456 44.8328 0.0391453 45.5937 0.0437278 46.3545C0.0476113 46.9955 0.0550676 47.6363 0.0723878 48.277C0.110135 49.6731 0.192542 51.0815 0.441006 52.4623C0.693043 53.8629 1.10446 55.1666 1.75292 56.4391C2.39043 57.69 3.22328 58.8346 4.21675 59.827C5.21021 60.8194 6.35576 61.651 7.60779 62.2878C8.8825 62.9361 10.1883 63.3472 11.5913 63.5989C12.973 63.8469 14.3824 63.9292 15.7795 63.9668C16.421 63.9842 17.0625 63.9915 17.7042 63.9954C18.4659 64.0001 19.2275 63.9998 19.9892 63.9998L28.7383 64H35.3566L44.0888 63.9997C44.8491 63.9997 45.6093 64.0001 46.3695 63.9954C47.0099 63.9915 47.6501 63.9842 48.2904 63.9668C49.6853 63.9291 51.0925 63.8468 52.4722 63.5986C53.8716 63.3469 55.1742 62.9359 56.4457 62.2881C57.6956 61.6514 58.8392 60.8195 59.8307 59.827C60.8222 58.8347 61.6533 57.6904 62.2896 56.4396C62.9372 55.1665 63.3479 53.8622 63.5995 52.4606C63.8473 51.0804 63.9295 49.6726 63.9671 48.277C63.9845 47.6362 63.9918 46.9954 63.9956 46.3545C64.0004 45.5937 64 44.8328 64 44.072C64 44.072 63.9995 35.4939 63.9995 35.3397V28.6601C63.9995 28.5462 64 19.9322 64 19.9322Z" fill="white"/>
</mask>
<g mask="url(#mask0_43_534)">
<rect x="-4.50485" y="-4.81552" width="70.9903" height="70.9903" fill="#CF0524"/>
<g filter="url(#filter0_ii_43_534)">
<path fill-rule="evenodd" clip-rule="evenodd" d="M64 19.9322C64 19.1724 64.0003 18.4126 63.9956 17.6528C63.9918 17.0127 63.9845 16.3728 63.9671 15.733C63.9295 14.3386 63.8472 12.9322 63.5992 11.5534C63.3477 10.1546 62.937 8.85278 62.2898 7.58188C61.6535 6.33272 60.8224 5.18965 59.8307 4.19866C58.8393 3.20768 57.6959 2.37708 56.4463 1.7412C55.174 1.09382 53.8708 0.68326 52.4705 0.431843C51.0915 0.184232 49.6848 0.102136 48.2904 0.0644658C47.6501 0.0471455 47.0099 0.0398445 46.3695 0.0358834C45.6093 0.0312232 44.8491 0.0316115 44.0888 0.0316115L35.2619 0H28.66L19.9892 0.0316115C19.2275 0.0316115 18.4658 0.0312232 17.7041 0.0358834C17.0624 0.0398445 16.421 0.0471455 15.7795 0.0644658C14.3819 0.102136 12.9719 0.18431 11.5897 0.432231C10.1875 0.68357 8.88234 1.09398 7.60841 1.74089C6.35615 2.37685 5.21029 3.20752 4.21675 4.19866C3.22335 5.18957 2.39066 6.3324 1.75323 7.58133C1.10422 8.85286 0.692733 10.1555 0.440618 11.555C0.192387 12.9333 0.110135 14.3392 0.0723101 15.733C0.0550676 16.3728 0.0476113 17.0128 0.0437278 17.6528C0.0390677 18.4127 0 19.3566 0 20.1164L0.000233008 28.6671L0 35.3397L0.039456 44.072C0.039456 44.8328 0.0391453 45.5937 0.0437278 46.3545C0.0476113 46.9955 0.0550676 47.6363 0.0723878 48.277C0.110135 49.6731 0.192542 51.0815 0.441006 52.4623C0.693043 53.8629 1.10446 55.1666 1.75292 56.4391C2.39043 57.69 3.22328 58.8346 4.21675 59.827C5.21021 60.8194 6.35576 61.651 7.60779 62.2878C8.8825 62.9361 10.1883 63.3472 11.5913 63.5989C12.973 63.8469 14.3824 63.9292 15.7795 63.9668C16.421 63.9842 17.0625 63.9915 17.7042 63.9954C18.4659 64.0001 19.2275 63.9998 19.9892 63.9998L28.7383 64H35.3566L44.0888 63.9997C44.8491 63.9997 45.6093 64.0001 46.3695 63.9954C47.0099 63.9915 47.6501 63.9842 48.2904 63.9668C49.6853 63.9291 51.0925 63.8468 52.4722 63.5986C53.8716 63.3469 55.1742 62.9359 56.4457 62.2881C57.6956 61.6514 58.8392 60.8195 59.8307 59.827C60.8222 58.8347 61.6533 57.6904 62.2896 56.4396C62.9372 55.1665 63.3479 53.8622 63.5995 52.4606C63.8473 51.0804 63.9295 49.6726 63.9671 48.277C63.9845 47.6362 63.9918 46.9954 63.9956 46.3545C64.0004 45.5937 64 44.8328 64 44.072C64 44.072 63.9995 35.4939 63.9995 35.3397V28.6601C63.9995 28.5462 64 19.9322 64 19.9322Z" fill="url(#paint0_linear_43_534)" fill-opacity="0.01"/>
</g>
<mask id="mask1_43_534" style="mask-type:luminance" maskUnits="userSpaceOnUse" x="13" y="17" width="40" height="30">
<path d="M13 17.1616H53V46.5768H13V17.1616Z" fill="white"/>
</mask>
<g mask="url(#mask1_43_534)">
<path d="M53 31.2127V32.5258C52.9875 32.597 52.9717 32.6669 52.9635 32.7378C52.8953 33.309 52.8512 33.8838 52.757 34.4507C52.4496 36.2932 51.7849 38.0057 50.7972 39.5892C49.2973 41.9934 47.2696 43.8267 44.7215 45.0787C43.2508 45.8047 41.6651 46.2713 40.0347 46.4577C39.6726 46.4994 39.3108 46.5368 38.9486 46.5765H24.8963C24.8255 46.5634 24.7551 46.5424 24.6836 46.5381C23.2667 46.4492 21.9034 46.1271 20.604 45.5602C17.775 44.326 15.6657 42.3256 14.2849 39.5722C13.6748 38.3577 13.28 37.0471 13.1179 35.6984C13.078 35.3704 13.0392 35.0428 13 34.7152V33.4413C13.0135 33.3707 13.0342 33.3001 13.0385 33.2292C13.1119 32.0051 13.3638 30.8165 13.8072 29.6742C15.0007 26.6004 17.081 24.3206 20.0374 22.8451C21.5712 22.0793 23.2061 21.6768 24.916 21.5875C25.7533 21.5442 26.5898 21.5908 27.4221 21.7021C27.4974 21.7123 27.6061 21.6788 27.6584 21.6253C28.8551 20.4065 30.2178 19.4164 31.7542 18.666C33.2446 17.9383 34.813 17.4692 36.464 17.2814C36.8525 17.2371 37.242 17.2007 37.6311 17.1606H38.8291C38.9075 17.1728 38.9862 17.1866 39.0645 17.1958C39.6581 17.2647 40.255 17.308 40.843 17.4062C42.6774 17.7131 44.385 18.3696 45.9653 19.3449C48.3883 20.8404 50.2349 22.8648 51.4965 25.4134C52.2261 26.8805 52.6945 28.4628 52.8808 30.0898C52.9236 30.4643 52.9602 30.8388 53 31.2127ZM30.6346 22.7164C30.6586 22.7479 30.6645 22.7627 30.6747 22.7676C31.4974 23.172 32.2838 23.6461 33.025 24.1847C33.0718 24.2185 33.1877 24.2044 33.2443 24.169C35.2815 22.8819 37.4899 22.4377 39.8622 22.8572C42.1868 23.2682 44.0785 24.4263 45.5238 26.2761C47.1603 28.3694 47.7842 30.7364 47.3325 33.37C47.0296 35.1351 46.3205 36.7186 45.1152 38.0451C42.9161 40.4634 40.1621 41.4636 36.9203 41.0401C34.9246 40.7795 33.2018 39.9211 31.776 38.4843C29.9458 36.6411 28.1039 34.8101 26.2685 32.9719C26.0239 32.727 25.7516 32.53 25.3993 32.487C24.784 32.4119 24.2257 32.7181 23.96 33.2693C23.723 33.7613 23.7536 34.3161 24.2678 34.8203C26.3139 36.823 28.3419 38.8441 30.3857 40.8488C30.7355 41.1936 31.1106 41.5119 31.508 41.801C33.001 42.882 34.6843 43.4797 36.5072 43.7204C37.9379 43.9088 39.3575 43.8684 40.7663 43.5526C43.4533 42.9509 45.6792 41.5834 47.4323 39.4734C48.8798 37.7296 49.7552 35.726 50.0604 33.4764C50.2373 32.1936 50.2003 30.8905 49.9511 29.6197C49.5445 27.5418 48.6629 25.6826 47.2502 24.1C44.5549 21.0823 41.164 19.7352 37.1287 20.0359C35.5765 20.1514 34.1081 20.606 32.7264 21.3272C31.9808 21.7135 31.2794 22.1793 30.6346 22.7164ZM29.6472 43.7827C29.5917 43.7314 29.5364 43.6799 29.4813 43.6281C28.6448 42.8406 27.8036 42.0581 26.977 41.2604C26.817 41.1061 26.6698 41.0309 26.4433 41.0362C25.6061 41.0565 24.7682 41.0602 23.9432 40.8744C19.8412 39.9493 17.4593 35.5024 18.971 31.5896C20.1635 28.5043 23.4645 26.6253 26.7198 27.2047C28.1789 27.4643 29.4596 28.0802 30.5108 29.1611C31.7928 30.4807 33.1129 31.7626 34.4087 33.0687C34.7037 33.3661 35.0425 33.5017 35.451 33.4436C35.9791 33.3684 36.3995 33.1176 36.5905 32.6013C36.7774 32.0931 36.6869 31.6119 36.3011 31.2222C34.9411 29.8485 33.6133 28.4403 32.1984 27.1249C29.454 24.5727 26.2178 23.8138 22.6385 24.899C17.8244 26.3575 15.0069 31.3142 16.1068 36.2052C17.1093 40.6616 21.0181 43.7893 25.5919 43.7932C26.869 43.7945 28.1463 43.7939 29.4234 43.7932C29.4866 43.7932 29.5498 43.7876 29.6472 43.7827Z" fill="url(#paint1_linear_43_534)"/>
</g>
</g>
</g>
<defs>
<filter id="filter0_ii_43_534" x="0" y="-1.5534" width="64" height="66.6408" filterUnits="userSpaceOnUse" color-interpolation-filters="sRGB">
<feFlood flood-opacity="0" result="BackgroundImageFix"/>
<feBlend mode="normal" in="SourceGraphic" in2="BackgroundImageFix" result="shape"/>
<feColorMatrix in="SourceAlpha" type="matrix" values="0 0 0 0 0 0 0 0 0 0 0 0 0 0 0 0 0 0 127 0" result="hardAlpha"/>
<feOffset dy="-1.5534"/>
<feGaussianBlur stdDeviation="1.5534"/>
<feComposite in2="hardAlpha" operator="arithmetic" k2="-1" k3="1"/>
<feColorMatrix type="matrix" values="0 0 0 0 0 0 0 0 0 0 0 0 0 0 0 0 0 0 0.3 0"/>
<feBlend mode="normal" in2="shape" result="effect1_innerShadow_43_534"/>
<feColorMatrix in="SourceAlpha" type="matrix" values="0 0 0 0 0 0 0 0 0 0 0 0 0 0 0 0 0 0 127 0" result="hardAlpha"/>
<feOffset dy="1.08738"/>
<feGaussianBlur stdDeviation="2.48544"/>
<feComposite in2="hardAlpha" operator="arithmetic" k2="-1" k3="1"/>
<feColorMatrix type="matrix" values="0 0 0 0 1 0 0 0 0 1 0 0 0 0 1 0 0 0 0.15 0"/>
<feBlend mode="normal" in2="effect1_innerShadow_43_534" result="effect2_innerShadow_43_534"/>
</filter>
<linearGradient id="paint0_linear_43_534" x1="-21.8362" y1="0" x2="-21.8362" y2="107.672" gradientUnits="userSpaceOnUse">
<stop stop-color="white"/>
<stop offset="0.489516" stop-color="#EFEFEF"/>
<stop offset="1" stop-color="#C0C0C0"/>
</linearGradient>
<linearGradient id="paint1_linear_43_534" x1="33" y1="17.1606" x2="33" y2="46.5765" gradientUnits="userSpaceOnUse">
<stop stop-color="white"/>
<stop offset="1" stop-color="#BBBBBB" stop-opacity="0.98"/>
</linearGradient>
<clipPath id="clip0_43_534">
<rect width="64" height="64" fill="white"/>
</clipPath>
</defs>
</svg>
