<svg width="64" height="64" viewBox="0 0 64 64" fill="none" xmlns="http://www.w3.org/2000/svg">
<g clip-path="url(#clip0_43_311)">
<mask id="mask0_43_311" style="mask-type:luminance" maskUnits="userSpaceOnUse" x="0" y="0" width="64" height="64">
<path fill-rule="evenodd" clip-rule="evenodd" d="M64 19.9322C64 19.1724 64.0003 18.4126 63.9956 17.6528C63.9918 17.0127 63.9845 16.3728 63.9671 15.733C63.9295 14.3386 63.8472 12.9322 63.5992 11.5534C63.3477 10.1546 62.937 8.85278 62.2898 7.58188C61.6535 6.33272 60.8224 5.18965 59.8307 4.19866C58.8393 3.20768 57.6959 2.37708 56.4463 1.7412C55.174 1.09382 53.8708 0.68326 52.4705 0.431843C51.0915 0.184232 49.6848 0.102136 48.2904 0.0644658C47.6501 0.0471455 47.0099 0.0398445 46.3695 0.0358834C45.6093 0.0312232 44.8491 0.0316115 44.0888 0.0316115L35.2619 0H28.66L19.9892 0.0316115C19.2275 0.0316115 18.4658 0.0312232 17.7041 0.0358834C17.0624 0.0398445 16.421 0.0471455 15.7795 0.0644658C14.3819 0.102136 12.9719 0.18431 11.5897 0.432231C10.1875 0.68357 8.88234 1.09398 7.60841 1.74089C6.35615 2.37685 5.21029 3.20752 4.21675 4.19866C3.22335 5.18957 2.39066 6.3324 1.75323 7.58133C1.10422 8.85286 0.692733 10.1555 0.440618 11.555C0.192387 12.9333 0.110135 14.3392 0.0723101 15.733C0.0550676 16.3728 0.0476113 17.0128 0.0437278 17.6528C0.0390677 18.4127 0 19.3566 0 20.1164L0.000233008 28.6671L0 35.3397L0.039456 44.072C0.039456 44.8328 0.0391453 45.5937 0.0437278 46.3545C0.0476113 46.9955 0.0550676 47.6363 0.0723878 48.277C0.110135 49.6731 0.192542 51.0815 0.441006 52.4623C0.693043 53.8629 1.10446 55.1666 1.75292 56.4391C2.39043 57.69 3.22328 58.8346 4.21675 59.827C5.21021 60.8194 6.35576 61.651 7.60779 62.2878C8.8825 62.9361 10.1883 63.3472 11.5913 63.5989C12.973 63.8469 14.3824 63.9292 15.7795 63.9668C16.421 63.9842 17.0625 63.9915 17.7042 63.9954C18.4659 64.0001 19.2275 63.9998 19.9892 63.9998L28.7383 64H35.3566L44.0888 63.9997C44.8491 63.9997 45.6093 64.0001 46.3695 63.9954C47.0099 63.9915 47.6501 63.9842 48.2904 63.9668C49.6853 63.9291 51.0925 63.8468 52.4722 63.5986C53.8716 63.3469 55.1742 62.9359 56.4457 62.2881C57.6956 61.6514 58.8392 60.8195 59.8307 59.827C60.8222 58.8347 61.6533 57.6904 62.2896 56.4396C62.9372 55.1665 63.3479 53.8622 63.5995 52.4606C63.8473 51.0804 63.9295 49.6726 63.9671 48.277C63.9845 47.6362 63.9918 46.9954 63.9956 46.3545C64.0004 45.5937 64 44.8328 64 44.072C64 44.072 63.9995 35.4939 63.9995 35.3397V28.6601C63.9995 28.5462 64 19.9322 64 19.9322Z" fill="white"/>
</mask>
<g mask="url(#mask0_43_311)">
<rect x="-4.50485" y="-4.81555" width="70.9903" height="70.9903" fill="#4B58EA"/>
<g filter="url(#filter0_ii_43_311)">
<path fill-rule="evenodd" clip-rule="evenodd" d="M64 19.9322C64 19.1724 64.0003 18.4126 63.9956 17.6528C63.9918 17.0127 63.9845 16.3728 63.9671 15.733C63.9295 14.3386 63.8472 12.9322 63.5992 11.5534C63.3477 10.1546 62.937 8.85278 62.2898 7.58188C61.6535 6.33272 60.8224 5.18965 59.8307 4.19866C58.8393 3.20768 57.6959 2.37708 56.4463 1.7412C55.174 1.09382 53.8708 0.68326 52.4705 0.431843C51.0915 0.184232 49.6848 0.102136 48.2904 0.0644658C47.6501 0.0471455 47.0099 0.0398445 46.3695 0.0358834C45.6093 0.0312232 44.8491 0.0316115 44.0888 0.0316115L35.2619 0H28.66L19.9892 0.0316115C19.2275 0.0316115 18.4658 0.0312232 17.7041 0.0358834C17.0624 0.0398445 16.421 0.0471455 15.7795 0.0644658C14.3819 0.102136 12.9719 0.18431 11.5897 0.432231C10.1875 0.68357 8.88234 1.09398 7.60841 1.74089C6.35615 2.37685 5.21029 3.20752 4.21675 4.19866C3.22335 5.18957 2.39066 6.3324 1.75323 7.58133C1.10422 8.85286 0.692733 10.1555 0.440618 11.555C0.192387 12.9333 0.110135 14.3392 0.0723101 15.733C0.0550676 16.3728 0.0476113 17.0128 0.0437278 17.6528C0.0390677 18.4127 0 19.3566 0 20.1164L0.000233008 28.6671L0 35.3397L0.039456 44.072C0.039456 44.8328 0.0391453 45.5937 0.0437278 46.3545C0.0476113 46.9955 0.0550676 47.6363 0.0723878 48.277C0.110135 49.6731 0.192542 51.0815 0.441006 52.4623C0.693043 53.8629 1.10446 55.1666 1.75292 56.4391C2.39043 57.69 3.22328 58.8346 4.21675 59.827C5.21021 60.8194 6.35576 61.651 7.60779 62.2878C8.8825 62.9361 10.1883 63.3472 11.5913 63.5989C12.973 63.8469 14.3824 63.9292 15.7795 63.9668C16.421 63.9842 17.0625 63.9915 17.7042 63.9954C18.4659 64.0001 19.2275 63.9998 19.9892 63.9998L28.7383 64H35.3566L44.0888 63.9997C44.8491 63.9997 45.6093 64.0001 46.3695 63.9954C47.0099 63.9915 47.6501 63.9842 48.2904 63.9668C49.6853 63.9291 51.0925 63.8468 52.4722 63.5986C53.8716 63.3469 55.1742 62.9359 56.4457 62.2881C57.6956 61.6514 58.8392 60.8195 59.8307 59.827C60.8222 58.8347 61.6533 57.6904 62.2896 56.4396C62.9372 55.1665 63.3479 53.8622 63.5995 52.4606C63.8473 51.0804 63.9295 49.6726 63.9671 48.277C63.9845 47.6362 63.9918 46.9954 63.9956 46.3545C64.0004 45.5937 64 44.8328 64 44.072C64 44.072 63.9995 35.4939 63.9995 35.3397V28.6601C63.9995 28.5462 64 19.9322 64 19.9322Z" fill="url(#paint0_linear_43_311)" fill-opacity="0.01"/>
</g>
<path d="M46.1896 19.4636C43.7298 18.3127 41.0997 17.4763 38.3499 17C38.0122 17.6106 37.6177 18.4318 37.3457 19.085C34.4226 18.6454 31.5265 18.6454 28.6572 19.085C28.3852 18.4318 27.9817 17.6106 27.641 17C24.8883 17.4763 22.2551 18.3157 19.7953 19.4697C14.8339 26.9671 13.4889 34.2782 14.1614 41.4856C17.4521 43.943 20.6411 45.4358 23.7764 46.4127C24.5505 45.3473 25.2409 44.2147 25.8357 43.0211C24.7029 42.5907 23.618 42.0595 22.5929 41.4429C22.8648 41.2414 23.1309 41.0308 23.3879 40.814C29.6405 43.7385 36.4341 43.7385 42.612 40.814C42.872 41.0308 43.138 41.2414 43.407 41.4429C42.3788 42.0626 41.2909 42.5937 40.1582 43.0242C40.7529 44.2147 41.4404 45.3503 42.2175 46.4157C45.3558 45.4388 48.5478 43.9461 51.8385 41.4856C52.6276 33.1304 50.4906 25.8864 46.1896 19.4636ZM26.6875 37.0531C24.8106 37.0531 23.2713 35.3009 23.2713 33.1671C23.2713 31.0332 24.7777 29.2779 26.6875 29.2779C28.5974 29.2779 30.1366 31.0302 30.1038 33.1671C30.1067 35.3009 28.5974 37.0531 26.6875 37.0531ZM39.3123 37.0531C37.4354 37.0531 35.8961 35.3009 35.8961 33.1671C35.8961 31.0332 37.4024 29.2779 39.3123 29.2779C41.2222 29.2779 42.7614 31.0302 42.7286 33.1671C42.7286 35.3009 41.2222 37.0531 39.3123 37.0531Z" fill="url(#paint1_linear_43_311)"/>
</g>
</g>
<defs>
<filter id="filter0_ii_43_311" x="0" y="-1.5534" width="64" height="66.6408" filterUnits="userSpaceOnUse" color-interpolation-filters="sRGB">
<feFlood flood-opacity="0" result="BackgroundImageFix"/>
<feBlend mode="normal" in="SourceGraphic" in2="BackgroundImageFix" result="shape"/>
<feColorMatrix in="SourceAlpha" type="matrix" values="0 0 0 0 0 0 0 0 0 0 0 0 0 0 0 0 0 0 127 0" result="hardAlpha"/>
<feOffset dy="-1.5534"/>
<feGaussianBlur stdDeviation="1.5534"/>
<feComposite in2="hardAlpha" operator="arithmetic" k2="-1" k3="1"/>
<feColorMatrix type="matrix" values="0 0 0 0 0 0 0 0 0 0 0 0 0 0 0 0 0 0 0.3 0"/>
<feBlend mode="normal" in2="shape" result="effect1_innerShadow_43_311"/>
<feColorMatrix in="SourceAlpha" type="matrix" values="0 0 0 0 0 0 0 0 0 0 0 0 0 0 0 0 0 0 127 0" result="hardAlpha"/>
<feOffset dy="1.08738"/>
<feGaussianBlur stdDeviation="2.48544"/>
<feComposite in2="hardAlpha" operator="arithmetic" k2="-1" k3="1"/>
<feColorMatrix type="matrix" values="0 0 0 0 1 0 0 0 0 1 0 0 0 0 1 0 0 0 0.15 0"/>
<feBlend mode="normal" in2="effect1_innerShadow_43_311" result="effect2_innerShadow_43_311"/>
</filter>
<linearGradient id="paint0_linear_43_311" x1="-21.8362" y1="0" x2="-21.8362" y2="107.672" gradientUnits="userSpaceOnUse">
<stop stop-color="white"/>
<stop offset="0.489516" stop-color="#EFEFEF"/>
<stop offset="1" stop-color="#C0C0C0"/>
</linearGradient>
<linearGradient id="paint1_linear_43_311" x1="32.6905" y1="31.4367" x2="34.4725" y2="46.2384" gradientUnits="userSpaceOnUse">
<stop stop-color="white"/>
<stop offset="1" stop-color="#AAB1FF"/>
</linearGradient>
<clipPath id="clip0_43_311">
<rect width="64" height="64" fill="white"/>
</clipPath>
</defs>
</svg>
