<svg width="64" height="64" viewBox="0 0 64 64" fill="none" xmlns="http://www.w3.org/2000/svg">
<g clip-path="url(#clip0_2_1682)">
<mask id="mask0_2_1682" style="mask-type:luminance" maskUnits="userSpaceOnUse" x="0" y="0" width="64" height="64">
<path fill-rule="evenodd" clip-rule="evenodd" d="M64 19.9322C64 19.1724 64.0003 18.4126 63.9956 17.6528C63.9918 17.0127 63.9845 16.3728 63.9671 15.733C63.9295 14.3386 63.8472 12.9322 63.5992 11.5534C63.3477 10.1546 62.937 8.85278 62.2898 7.58188C61.6535 6.33272 60.8224 5.18965 59.8307 4.19866C58.8393 3.20768 57.6959 2.37708 56.4463 1.7412C55.174 1.09382 53.8708 0.68326 52.4705 0.431843C51.0915 0.184232 49.6848 0.102136 48.2904 0.0644658C47.6501 0.0471455 47.0099 0.0398445 46.3695 0.0358834C45.6093 0.0312232 44.8491 0.0316115 44.0888 0.0316115L35.2619 0H28.66L19.9892 0.0316115C19.2275 0.0316115 18.4658 0.0312232 17.7041 0.0358834C17.0624 0.0398445 16.421 0.0471455 15.7795 0.0644658C14.3819 0.102136 12.9719 0.18431 11.5897 0.432231C10.1875 0.68357 8.88234 1.09398 7.60841 1.74089C6.35615 2.37685 5.21029 3.20752 4.21675 4.19866C3.22335 5.18957 2.39066 6.3324 1.75323 7.58133C1.10422 8.85286 0.692733 10.1555 0.440618 11.555C0.192387 12.9333 0.110135 14.3392 0.0723101 15.733C0.0550676 16.3728 0.0476113 17.0128 0.0437278 17.6528C0.0390677 18.4127 0 19.3566 0 20.1164L0.000233008 28.6671L0 35.3397L0.039456 44.072C0.039456 44.8328 0.0391453 45.5937 0.0437278 46.3545C0.0476113 46.9955 0.0550676 47.6363 0.0723878 48.277C0.110135 49.6731 0.192542 51.0815 0.441006 52.4623C0.693043 53.8629 1.10446 55.1666 1.75292 56.4391C2.39043 57.69 3.22328 58.8346 4.21675 59.827C5.21021 60.8194 6.35576 61.651 7.60779 62.2878C8.8825 62.9361 10.1883 63.3472 11.5913 63.5989C12.973 63.8469 14.3824 63.9292 15.7795 63.9668C16.421 63.9842 17.0625 63.9915 17.7042 63.9954C18.4659 64.0001 19.2275 63.9998 19.9892 63.9998L28.7383 64H35.3566L44.0888 63.9997C44.8491 63.9997 45.6093 64.0001 46.3695 63.9954C47.0099 63.9915 47.6501 63.9842 48.2904 63.9668C49.6853 63.9291 51.0925 63.8468 52.4722 63.5986C53.8716 63.3469 55.1742 62.9359 56.4457 62.2881C57.6956 61.6514 58.8392 60.8195 59.8307 59.827C60.8222 58.8347 61.6533 57.6904 62.2896 56.4396C62.9372 55.1665 63.3479 53.8622 63.5995 52.4606C63.8473 51.0804 63.9295 49.6726 63.9671 48.277C63.9845 47.6362 63.9918 46.9954 63.9956 46.3545C64.0004 45.5937 64 44.8328 64 44.072C64 44.072 63.9995 35.4939 63.9995 35.3397V28.6601C63.9995 28.5462 64 19.9322 64 19.9322Z" fill="white"/>
</mask>
<g mask="url(#mask0_2_1682)">
<rect x="-4.50485" y="-4.81555" width="70.9903" height="70.9903" fill="#101010"/>
<g filter="url(#filter0_ii_2_1682)">
<path fill-rule="evenodd" clip-rule="evenodd" d="M64 19.9322C64 19.1724 64.0003 18.4126 63.9956 17.6528C63.9918 17.0127 63.9845 16.3728 63.9671 15.733C63.9295 14.3386 63.8472 12.9322 63.5992 11.5534C63.3477 10.1546 62.937 8.85278 62.2898 7.58188C61.6535 6.33272 60.8224 5.18965 59.8307 4.19866C58.8393 3.20768 57.6959 2.37708 56.4463 1.7412C55.174 1.09382 53.8708 0.68326 52.4705 0.431843C51.0915 0.184232 49.6848 0.102136 48.2904 0.0644658C47.6501 0.0471455 47.0099 0.0398445 46.3695 0.0358834C45.6093 0.0312232 44.8491 0.0316115 44.0888 0.0316115L35.2619 0H28.66L19.9892 0.0316115C19.2275 0.0316115 18.4658 0.0312232 17.7041 0.0358834C17.0624 0.0398445 16.421 0.0471455 15.7795 0.0644658C14.3819 0.102136 12.9719 0.18431 11.5897 0.432231C10.1875 0.68357 8.88234 1.09398 7.60841 1.74089C6.35615 2.37685 5.21029 3.20752 4.21675 4.19866C3.22335 5.18957 2.39066 6.3324 1.75323 7.58133C1.10422 8.85286 0.692733 10.1555 0.440618 11.555C0.192387 12.9333 0.110135 14.3392 0.0723101 15.733C0.0550676 16.3728 0.0476113 17.0128 0.0437278 17.6528C0.0390677 18.4127 0 19.3566 0 20.1164L0.000233008 28.6671L0 35.3397L0.039456 44.072C0.039456 44.8328 0.0391453 45.5937 0.0437278 46.3545C0.0476113 46.9955 0.0550676 47.6363 0.0723878 48.277C0.110135 49.6731 0.192542 51.0815 0.441006 52.4623C0.693043 53.8629 1.10446 55.1666 1.75292 56.4391C2.39043 57.69 3.22328 58.8346 4.21675 59.827C5.21021 60.8194 6.35576 61.651 7.60779 62.2878C8.8825 62.9361 10.1883 63.3472 11.5913 63.5989C12.973 63.8469 14.3824 63.9292 15.7795 63.9668C16.421 63.9842 17.0625 63.9915 17.7042 63.9954C18.4659 64.0001 19.2275 63.9998 19.9892 63.9998L28.7383 64H35.3566L44.0888 63.9997C44.8491 63.9997 45.6093 64.0001 46.3695 63.9954C47.0099 63.9915 47.6501 63.9842 48.2904 63.9668C49.6853 63.9291 51.0925 63.8468 52.4722 63.5986C53.8716 63.3469 55.1742 62.9359 56.4457 62.2881C57.6956 61.6514 58.8392 60.8195 59.8307 59.827C60.8222 58.8347 61.6533 57.6904 62.2896 56.4396C62.9372 55.1665 63.3479 53.8622 63.5995 52.4606C63.8473 51.0804 63.9295 49.6726 63.9671 48.277C63.9845 47.6362 63.9918 46.9954 63.9956 46.3545C64.0004 45.5937 64 44.8328 64 44.072C64 44.072 63.9995 35.4939 63.9995 35.3397V28.6601C63.9995 28.5462 64 19.9322 64 19.9322Z" fill="url(#paint0_linear_2_1682)" fill-opacity="0.01"/>
</g>
</g>
<g clip-path="url(#clip1_2_1682)" filter="url(#filter1_dd_2_1682)">
<path d="M33.9975 31.9999C33.9975 30.2317 34.735 28.5361 36.0478 27.2858C37.3605 26.0356 39.141 25.3332 40.9975 25.3332C42.854 25.3332 44.6345 26.0356 45.9473 27.2858C47.26 28.5361 47.9975 30.2317 47.9975 31.9999C47.9975 33.768 47.26 35.4637 45.9473 36.7139C44.6345 37.9641 42.854 38.6665 40.9975 38.6665C39.141 38.6665 37.3605 37.9641 36.0478 36.7139C34.735 35.4637 33.9975 33.768 33.9975 31.9999Z" fill="url(#paint1_linear_2_1682)"/>
<path d="M20 45.3335C20 43.5654 20.7375 41.8697 22.0503 40.6194C23.363 39.3692 25.1435 38.6668 27 38.6668H34V45.3335C34 47.1016 33.2625 48.7973 31.9497 50.0475C30.637 51.2978 28.8565 52.0001 27 52.0001C25.1435 52.0001 23.363 51.2978 22.0503 50.0475C20.7375 48.7973 20 47.1016 20 45.3335V45.3335Z" fill="url(#paint2_linear_2_1682)"/>
<path d="M33.9975 12V25.3333H40.9975C42.854 25.3333 44.6345 24.631 45.9473 23.3807C47.26 22.1305 47.9975 20.4348 47.9975 18.6667C47.9975 16.8986 47.26 15.2029 45.9473 13.9526C44.6345 12.7024 42.854 12 40.9975 12H33.9975Z" fill="url(#paint3_linear_2_1682)"/>
<path d="M20 18.6667C20 20.4348 20.7375 22.1305 22.0503 23.3807C23.363 24.631 25.1435 25.3333 27 25.3333H34V12H27C25.1435 12 23.363 12.7024 22.0503 13.9526C20.7375 15.2029 20 16.8986 20 18.6667V18.6667Z" fill="url(#paint4_linear_2_1682)"/>
<path d="M20 31.9999C20 33.768 20.7375 35.4637 22.0503 36.7139C23.363 37.9641 25.1435 38.6665 27 38.6665H34V25.3332H27C25.1435 25.3332 23.363 26.0356 22.0503 27.2858C20.7375 28.5361 20 30.2317 20 31.9999V31.9999Z" fill="url(#paint5_linear_2_1682)"/>
</g>
</g>
<defs>
<filter id="filter0_ii_2_1682" x="0" y="-1.5534" width="64" height="66.6408" filterUnits="userSpaceOnUse" color-interpolation-filters="sRGB">
<feFlood flood-opacity="0" result="BackgroundImageFix"/>
<feBlend mode="normal" in="SourceGraphic" in2="BackgroundImageFix" result="shape"/>
<feColorMatrix in="SourceAlpha" type="matrix" values="0 0 0 0 0 0 0 0 0 0 0 0 0 0 0 0 0 0 127 0" result="hardAlpha"/>
<feOffset dy="-1.5534"/>
<feGaussianBlur stdDeviation="1.5534"/>
<feComposite in2="hardAlpha" operator="arithmetic" k2="-1" k3="1"/>
<feColorMatrix type="matrix" values="0 0 0 0 0 0 0 0 0 0 0 0 0 0 0 0 0 0 0.3 0"/>
<feBlend mode="normal" in2="shape" result="effect1_innerShadow_2_1682"/>
<feColorMatrix in="SourceAlpha" type="matrix" values="0 0 0 0 0 0 0 0 0 0 0 0 0 0 0 0 0 0 127 0" result="hardAlpha"/>
<feOffset dy="1.08738"/>
<feGaussianBlur stdDeviation="2.48544"/>
<feComposite in2="hardAlpha" operator="arithmetic" k2="-1" k3="1"/>
<feColorMatrix type="matrix" values="0 0 0 0 1 0 0 0 0 1 0 0 0 0 1 0 0 0 0.15 0"/>
<feBlend mode="normal" in2="effect1_innerShadow_2_1682" result="effect2_innerShadow_2_1682"/>
</filter>
<filter id="filter1_dd_2_1682" x="12.6015" y="6.45112" width="42.797" height="54.797" filterUnits="userSpaceOnUse" color-interpolation-filters="sRGB">
<feFlood flood-opacity="0" result="BackgroundImageFix"/>
<feColorMatrix in="SourceAlpha" type="matrix" values="0 0 0 0 0 0 0 0 0 0 0 0 0 0 0 0 0 0 127 0" result="hardAlpha"/>
<feMorphology radius="1.84963" operator="dilate" in="SourceAlpha" result="effect1_dropShadow_2_1682"/>
<feOffset dy="1.84963"/>
<feGaussianBlur stdDeviation="2.77444"/>
<feColorMatrix type="matrix" values="0 0 0 0 0 0 0 0 0 0 0 0 0 0 0 0 0 0 0.15 0"/>
<feBlend mode="normal" in2="BackgroundImageFix" result="effect1_dropShadow_2_1682"/>
<feColorMatrix in="SourceAlpha" type="matrix" values="0 0 0 0 0 0 0 0 0 0 0 0 0 0 0 0 0 0 127 0" result="hardAlpha"/>
<feOffset dy="0.924814"/>
<feGaussianBlur stdDeviation="0.924814"/>
<feColorMatrix type="matrix" values="0 0 0 0 0 0 0 0 0 0 0 0 0 0 0 0 0 0 0.3 0"/>
<feBlend mode="normal" in2="effect1_dropShadow_2_1682" result="effect2_dropShadow_2_1682"/>
<feBlend mode="normal" in="SourceGraphic" in2="effect2_dropShadow_2_1682" result="shape"/>
</filter>
<linearGradient id="paint0_linear_2_1682" x1="-21.8362" y1="0" x2="-21.8362" y2="107.672" gradientUnits="userSpaceOnUse">
<stop stop-color="white"/>
<stop offset="0.489516" stop-color="#EFEFEF"/>
<stop offset="1" stop-color="#C0C0C0"/>
</linearGradient>
<linearGradient id="paint1_linear_2_1682" x1="40.9975" y1="25.3332" x2="40.9975" y2="38.6665" gradientUnits="userSpaceOnUse">
<stop stop-color="#58CFFF"/>
<stop offset="1" stop-color="#007CD6"/>
</linearGradient>
<linearGradient id="paint2_linear_2_1682" x1="27" y1="38.6668" x2="27" y2="52.0001" gradientUnits="userSpaceOnUse">
<stop stop-color="#0ACF83"/>
<stop offset="1" stop-color="#005534"/>
</linearGradient>
<linearGradient id="paint3_linear_2_1682" x1="40.9975" y1="12" x2="40.9975" y2="25.3333" gradientUnits="userSpaceOnUse">
<stop stop-color="#FF7262"/>
<stop offset="1" stop-color="#DE3F2D"/>
</linearGradient>
<linearGradient id="paint4_linear_2_1682" x1="27" y1="12" x2="27" y2="25.3333" gradientUnits="userSpaceOnUse">
<stop stop-color="#F24E1E"/>
<stop offset="1" stop-color="#AB2B06"/>
</linearGradient>
<linearGradient id="paint5_linear_2_1682" x1="27" y1="25.3332" x2="27" y2="38.6665" gradientUnits="userSpaceOnUse">
<stop stop-color="#A259FF"/>
<stop offset="1" stop-color="#5E5964"/>
</linearGradient>
<clipPath id="clip0_2_1682">
<rect width="64" height="64" fill="white"/>
</clipPath>
<clipPath id="clip1_2_1682">
<rect width="28" height="40" fill="white" transform="translate(20 12)"/>
</clipPath>
</defs>
</svg>
