<svg width="64" height="64" viewBox="0 0 64 64" fill="none" xmlns="http://www.w3.org/2000/svg">
<g clip-path="url(#clip0_2_1676)">
<mask id="mask0_2_1676" style="mask-type:luminance" maskUnits="userSpaceOnUse" x="0" y="0" width="64" height="64">
<path fill-rule="evenodd" clip-rule="evenodd" d="M64 19.9322C64 19.1724 64.0003 18.4126 63.9956 17.6528C63.9918 17.0127 63.9845 16.3728 63.9671 15.733C63.9295 14.3386 63.8472 12.9322 63.5992 11.5534C63.3477 10.1546 62.937 8.85278 62.2898 7.58188C61.6535 6.33272 60.8224 5.18965 59.8307 4.19866C58.8393 3.20768 57.6959 2.37708 56.4463 1.7412C55.174 1.09382 53.8708 0.68326 52.4705 0.431843C51.0915 0.184232 49.6848 0.102136 48.2904 0.0644658C47.6501 0.0471455 47.0099 0.0398445 46.3695 0.0358834C45.6093 0.0312232 44.8491 0.0316115 44.0888 0.0316115L35.2619 0H28.66L19.9892 0.0316115C19.2275 0.0316115 18.4658 0.0312232 17.7041 0.0358834C17.0624 0.0398445 16.421 0.0471455 15.7795 0.0644658C14.3819 0.102136 12.9719 0.18431 11.5897 0.432231C10.1875 0.68357 8.88234 1.09398 7.60841 1.74089C6.35615 2.37685 5.21029 3.20752 4.21675 4.19866C3.22335 5.18957 2.39066 6.3324 1.75323 7.58133C1.10422 8.85286 0.692733 10.1555 0.440618 11.555C0.192387 12.9333 0.110135 14.3392 0.0723101 15.733C0.0550676 16.3728 0.0476113 17.0128 0.0437278 17.6528C0.0390677 18.4127 0 19.3566 0 20.1164L0.000233008 28.6671L0 35.3397L0.039456 44.072C0.039456 44.8328 0.0391453 45.5937 0.0437278 46.3545C0.0476113 46.9955 0.0550676 47.6363 0.0723878 48.277C0.110135 49.6731 0.192542 51.0815 0.441006 52.4623C0.693043 53.8629 1.10446 55.1666 1.75292 56.4391C2.39043 57.69 3.22328 58.8346 4.21675 59.827C5.21021 60.8194 6.35576 61.651 7.60779 62.2878C8.8825 62.9361 10.1883 63.3472 11.5913 63.5989C12.973 63.8469 14.3824 63.9292 15.7795 63.9668C16.421 63.9842 17.0625 63.9915 17.7042 63.9954C18.4659 64.0001 19.2275 63.9998 19.9892 63.9998L28.7383 64H35.3566L44.0888 63.9997C44.8491 63.9997 45.6093 64.0001 46.3695 63.9954C47.0099 63.9915 47.6501 63.9842 48.2904 63.9668C49.6853 63.9291 51.0925 63.8468 52.4722 63.5986C53.8716 63.3469 55.1742 62.9359 56.4457 62.2881C57.6956 61.6514 58.8392 60.8195 59.8307 59.827C60.8222 58.8347 61.6533 57.6904 62.2896 56.4396C62.9372 55.1665 63.3479 53.8622 63.5995 52.4606C63.8473 51.0804 63.9295 49.6726 63.9671 48.277C63.9845 47.6362 63.9918 46.9954 63.9956 46.3545C64.0004 45.5937 64 44.8328 64 44.072C64 44.072 63.9995 35.4939 63.9995 35.3397V28.6601C63.9995 28.5462 64 19.9322 64 19.9322Z" fill="white"/>
</mask>
<g mask="url(#mask0_2_1676)">
<rect x="-4.50485" y="-4.81555" width="70.9903" height="70.9903" fill="#101010"/>
<g filter="url(#filter0_ii_2_1676)">
<path fill-rule="evenodd" clip-rule="evenodd" d="M64 19.9322C64 19.1724 64.0003 18.4126 63.9956 17.6528C63.9918 17.0127 63.9845 16.3728 63.9671 15.733C63.9295 14.3386 63.8472 12.9322 63.5992 11.5534C63.3477 10.1546 62.937 8.85278 62.2898 7.58188C61.6535 6.33272 60.8224 5.18965 59.8307 4.19866C58.8393 3.20768 57.6959 2.37708 56.4463 1.7412C55.174 1.09382 53.8708 0.68326 52.4705 0.431843C51.0915 0.184232 49.6848 0.102136 48.2904 0.0644658C47.6501 0.0471455 47.0099 0.0398445 46.3695 0.0358834C45.6093 0.0312232 44.8491 0.0316115 44.0888 0.0316115L35.2619 0H28.66L19.9892 0.0316115C19.2275 0.0316115 18.4658 0.0312232 17.7041 0.0358834C17.0624 0.0398445 16.421 0.0471455 15.7795 0.0644658C14.3819 0.102136 12.9719 0.18431 11.5897 0.432231C10.1875 0.68357 8.88234 1.09398 7.60841 1.74089C6.35615 2.37685 5.21029 3.20752 4.21675 4.19866C3.22335 5.18957 2.39066 6.3324 1.75323 7.58133C1.10422 8.85286 0.692733 10.1555 0.440618 11.555C0.192387 12.9333 0.110135 14.3392 0.0723101 15.733C0.0550676 16.3728 0.0476113 17.0128 0.0437278 17.6528C0.0390677 18.4127 0 19.3566 0 20.1164L0.000233008 28.6671L0 35.3397L0.039456 44.072C0.039456 44.8328 0.0391453 45.5937 0.0437278 46.3545C0.0476113 46.9955 0.0550676 47.6363 0.0723878 48.277C0.110135 49.6731 0.192542 51.0815 0.441006 52.4623C0.693043 53.8629 1.10446 55.1666 1.75292 56.4391C2.39043 57.69 3.22328 58.8346 4.21675 59.827C5.21021 60.8194 6.35576 61.651 7.60779 62.2878C8.8825 62.9361 10.1883 63.3472 11.5913 63.5989C12.973 63.8469 14.3824 63.9292 15.7795 63.9668C16.421 63.9842 17.0625 63.9915 17.7042 63.9954C18.4659 64.0001 19.2275 63.9998 19.9892 63.9998L28.7383 64H35.3566L44.0888 63.9997C44.8491 63.9997 45.6093 64.0001 46.3695 63.9954C47.0099 63.9915 47.6501 63.9842 48.2904 63.9668C49.6853 63.9291 51.0925 63.8468 52.4722 63.5986C53.8716 63.3469 55.1742 62.9359 56.4457 62.2881C57.6956 61.6514 58.8392 60.8195 59.8307 59.827C60.8222 58.8347 61.6533 57.6904 62.2896 56.4396C62.9372 55.1665 63.3479 53.8622 63.5995 52.4606C63.8473 51.0804 63.9295 49.6726 63.9671 48.277C63.9845 47.6362 63.9918 46.9954 63.9956 46.3545C64.0004 45.5937 64 44.8328 64 44.072C64 44.072 63.9995 35.4939 63.9995 35.3397V28.6601C63.9995 28.5462 64 19.9322 64 19.9322Z" fill="#04045D"/>
</g>
</g>
<g clip-path="url(#clip1_2_1676)" filter="url(#filter1_dd_2_1676)">
<path d="M18 43.7818V20.3861C18 20.2271 18.0681 20.1363 18.2271 20.1363C18.6133 20.1363 18.9767 20.1363 19.4991 20.1136C20.0443 20.0909 20.6121 20.0909 21.2254 20.0681C21.8387 20.0454 22.4974 20.0454 23.2016 20.0227C23.9057 20 24.5871 20 25.2686 20C27.1311 20 28.6757 20.2271 29.9477 20.7041C31.0834 21.0903 32.1283 21.7263 32.9914 22.5667C33.7183 23.2936 34.2861 24.1794 34.6496 25.1561C34.9903 26.1101 35.172 27.0869 35.172 28.109C35.172 30.0624 34.7177 31.6751 33.8091 32.9471C32.9006 34.2191 31.6286 35.1731 30.1521 35.7183C28.6076 36.2861 26.904 36.4906 25.0414 36.4906C24.4963 36.4906 24.1329 36.4906 23.9057 36.4678C23.6786 36.4451 23.3606 36.4451 22.929 36.4451V43.7364C22.9517 43.8954 22.8381 44.0317 22.6791 44.0544H22.5883H18.2726C18.0909 44.0544 18 43.9636 18 43.7591V43.7818ZM22.9517 24.5429V32.1749C23.2697 32.1976 23.565 32.2203 23.8376 32.2203H25.0414C25.9273 32.2203 26.8131 32.084 27.6536 31.8114C28.3804 31.607 29.0164 31.1754 29.5161 30.6076C29.9931 30.0397 30.2203 29.2674 30.2203 28.268C30.243 27.5639 30.0613 26.8597 29.6979 26.2464C29.3117 25.6559 28.7666 25.2016 28.1079 24.9517C27.2674 24.611 26.3589 24.4747 25.4276 24.4974C24.837 24.4974 24.3146 24.4974 23.883 24.5201C23.4287 24.4974 23.1107 24.5201 22.9517 24.5429Z" fill="url(#paint0_linear_2_1676)"/>
<path d="M38.4428 25.8831H42.4178C42.6449 25.8831 42.8266 26.0421 42.8948 26.2465C42.9629 26.4283 43.0083 26.61 43.0311 26.8144C43.0765 27.0415 43.1219 27.2914 43.1446 27.5185C43.1673 27.7684 43.1901 28.041 43.1901 28.3363C43.8715 27.5413 44.6892 26.8825 45.6205 26.3828C46.6653 25.7923 47.8692 25.497 49.073 25.497C49.232 25.4743 49.3683 25.5878 49.391 25.7468V25.8377V30.267C49.391 30.4487 49.2775 30.5168 49.0276 30.5168C48.2099 30.4941 47.3695 30.5623 46.5745 30.744C45.9158 30.8803 45.2798 31.0847 44.6665 31.3573C44.2349 31.5617 43.8261 31.8343 43.5081 32.1977V43.782C43.5081 44.0091 43.4172 44.1 43.2128 44.1H38.7381C38.5563 44.1227 38.3973 44.0091 38.3746 43.8274V43.7365V31.1528C38.3746 30.6077 38.3746 30.0398 38.3519 29.4493C38.3292 28.8587 38.3292 28.2681 38.3065 27.6775C38.3065 27.1551 38.2611 26.6554 38.2156 26.133C38.1929 26.0194 38.2611 25.9058 38.3746 25.8831C38.3746 25.8604 38.4201 25.8604 38.4428 25.8831Z" fill="url(#paint1_linear_2_1676)"/>
</g>
</g>
<defs>
<filter id="filter0_ii_2_1676" x="0" y="-1.5534" width="64" height="66.6408" filterUnits="userSpaceOnUse" color-interpolation-filters="sRGB">
<feFlood flood-opacity="0" result="BackgroundImageFix"/>
<feBlend mode="normal" in="SourceGraphic" in2="BackgroundImageFix" result="shape"/>
<feColorMatrix in="SourceAlpha" type="matrix" values="0 0 0 0 0 0 0 0 0 0 0 0 0 0 0 0 0 0 127 0" result="hardAlpha"/>
<feOffset dy="-1.5534"/>
<feGaussianBlur stdDeviation="1.5534"/>
<feComposite in2="hardAlpha" operator="arithmetic" k2="-1" k3="1"/>
<feColorMatrix type="matrix" values="0 0 0 0 0 0 0 0 0 0 0 0 0 0 0 0 0 0 0.3 0"/>
<feBlend mode="normal" in2="shape" result="effect1_innerShadow_2_1676"/>
<feColorMatrix in="SourceAlpha" type="matrix" values="0 0 0 0 0 0 0 0 0 0 0 0 0 0 0 0 0 0 127 0" result="hardAlpha"/>
<feOffset dy="1.08738"/>
<feGaussianBlur stdDeviation="2.48544"/>
<feComposite in2="hardAlpha" operator="arithmetic" k2="-1" k3="1"/>
<feColorMatrix type="matrix" values="0 0 0 0 1 0 0 0 0 1 0 0 0 0 1 0 0 0 0.15 0"/>
<feBlend mode="normal" in2="effect1_innerShadow_2_1676" result="effect2_innerShadow_2_1676"/>
</filter>
<filter id="filter1_dd_2_1676" x="14.6064" y="17.4548" width="38.1784" height="30.89" filterUnits="userSpaceOnUse" color-interpolation-filters="sRGB">
<feFlood flood-opacity="0" result="BackgroundImageFix"/>
<feColorMatrix in="SourceAlpha" type="matrix" values="0 0 0 0 0 0 0 0 0 0 0 0 0 0 0 0 0 0 127 0" result="hardAlpha"/>
<feMorphology radius="0.848409" operator="dilate" in="SourceAlpha" result="effect1_dropShadow_2_1676"/>
<feOffset dy="0.848409"/>
<feGaussianBlur stdDeviation="1.27261"/>
<feColorMatrix type="matrix" values="0 0 0 0 0 0 0 0 0 0 0 0 0 0 0 0 0 0 0.15 0"/>
<feBlend mode="normal" in2="BackgroundImageFix" result="effect1_dropShadow_2_1676"/>
<feColorMatrix in="SourceAlpha" type="matrix" values="0 0 0 0 0 0 0 0 0 0 0 0 0 0 0 0 0 0 127 0" result="hardAlpha"/>
<feOffset dy="0.848409"/>
<feGaussianBlur stdDeviation="0.848409"/>
<feColorMatrix type="matrix" values="0 0 0 0 0 0 0 0 0 0 0 0 0 0 0 0 0 0 0.3 0"/>
<feBlend mode="normal" in2="effect1_dropShadow_2_1676" result="effect2_dropShadow_2_1676"/>
<feBlend mode="normal" in="SourceGraphic" in2="effect2_dropShadow_2_1676" result="shape"/>
</filter>
<linearGradient id="paint0_linear_2_1676" x1="26.586" y1="20" x2="26.586" y2="44.0544" gradientUnits="userSpaceOnUse">
<stop stop-color="#CBCBFF"/>
<stop offset="1" stop-color="#8989FF"/>
</linearGradient>
<linearGradient id="paint1_linear_2_1676" x1="43.8012" y1="25.4941" x2="43.8012" y2="44.1028" gradientUnits="userSpaceOnUse">
<stop stop-color="#CBCBFF"/>
<stop offset="1" stop-color="#8989FF"/>
</linearGradient>
<clipPath id="clip0_2_1676">
<rect width="64" height="64" fill="white"/>
</clipPath>
<clipPath id="clip1_2_1676">
<rect width="31.3911" height="24.1027" fill="white" transform="translate(18 20)"/>
</clipPath>
</defs>
</svg>
