<svg width="64" height="64" viewBox="0 0 64 64" fill="none" xmlns="http://www.w3.org/2000/svg">
<g clip-path="url(#clip0_2_1674)">
<mask id="mask0_2_1674" style="mask-type:luminance" maskUnits="userSpaceOnUse" x="0" y="0" width="64" height="64">
<path fill-rule="evenodd" clip-rule="evenodd" d="M64 19.9322C64 19.1724 64.0003 18.4126 63.9956 17.6528C63.9918 17.0127 63.9845 16.3728 63.9671 15.733C63.9295 14.3386 63.8472 12.9322 63.5992 11.5534C63.3477 10.1546 62.937 8.85278 62.2898 7.58188C61.6535 6.33272 60.8224 5.18965 59.8307 4.19866C58.8393 3.20768 57.6959 2.37708 56.4463 1.7412C55.174 1.09382 53.8708 0.68326 52.4705 0.431843C51.0915 0.184232 49.6848 0.102136 48.2904 0.0644658C47.6501 0.0471455 47.0099 0.0398445 46.3695 0.0358834C45.6093 0.0312232 44.8491 0.0316115 44.0888 0.0316115L35.2619 0H28.66L19.9892 0.0316115C19.2275 0.0316115 18.4658 0.0312232 17.7041 0.0358834C17.0624 0.0398445 16.421 0.0471455 15.7795 0.0644658C14.3819 0.102136 12.9719 0.18431 11.5897 0.432231C10.1875 0.68357 8.88234 1.09398 7.60841 1.74089C6.35615 2.37685 5.21029 3.20752 4.21675 4.19866C3.22335 5.18957 2.39066 6.3324 1.75323 7.58133C1.10422 8.85286 0.692733 10.1555 0.440618 11.555C0.192387 12.9333 0.110135 14.3392 0.0723101 15.733C0.0550676 16.3728 0.0476113 17.0128 0.0437278 17.6528C0.0390677 18.4127 0 19.3566 0 20.1164L0.000233008 28.6671L0 35.3397L0.039456 44.072C0.039456 44.8328 0.0391453 45.5937 0.0437278 46.3545C0.0476113 46.9955 0.0550676 47.6363 0.0723878 48.277C0.110135 49.6731 0.192542 51.0815 0.441006 52.4623C0.693043 53.8629 1.10446 55.1666 1.75292 56.4391C2.39043 57.69 3.22328 58.8346 4.21675 59.827C5.21021 60.8194 6.35576 61.651 7.60779 62.2878C8.8825 62.9361 10.1883 63.3472 11.5913 63.5989C12.973 63.8469 14.3824 63.9292 15.7795 63.9668C16.421 63.9842 17.0625 63.9915 17.7042 63.9954C18.4659 64.0001 19.2275 63.9998 19.9892 63.9998L28.7383 64H35.3566L44.0888 63.9997C44.8491 63.9997 45.6093 64.0001 46.3695 63.9954C47.0099 63.9915 47.6501 63.9842 48.2904 63.9668C49.6853 63.9291 51.0925 63.8468 52.4722 63.5986C53.8716 63.3469 55.1742 62.9359 56.4457 62.2881C57.6956 61.6514 58.8392 60.8195 59.8307 59.827C60.8222 58.8347 61.6533 57.6904 62.2896 56.4396C62.9372 55.1665 63.3479 53.8622 63.5995 52.4606C63.8473 51.0804 63.9295 49.6726 63.9671 48.277C63.9845 47.6362 63.9918 46.9954 63.9956 46.3545C64.0004 45.5937 64 44.8328 64 44.072C64 44.072 63.9995 35.4939 63.9995 35.3397V28.6601C63.9995 28.5462 64 19.9322 64 19.9322Z" fill="white"/>
</mask>
<g mask="url(#mask0_2_1674)">
<rect x="-4.50485" y="-4.81555" width="70.9903" height="70.9903" fill="#042239"/>
<g filter="url(#filter0_ii_2_1674)">
<path fill-rule="evenodd" clip-rule="evenodd" d="M64 19.9322C64 19.1724 64.0003 18.4126 63.9956 17.6528C63.9918 17.0127 63.9845 16.3728 63.9671 15.733C63.9295 14.3386 63.8472 12.9322 63.5992 11.5534C63.3477 10.1546 62.937 8.85278 62.2898 7.58188C61.6535 6.33272 60.8224 5.18965 59.8307 4.19866C58.8393 3.20768 57.6959 2.37708 56.4463 1.7412C55.174 1.09382 53.8708 0.68326 52.4705 0.431843C51.0915 0.184232 49.6848 0.102136 48.2904 0.0644658C47.6501 0.0471455 47.0099 0.0398445 46.3695 0.0358834C45.6093 0.0312232 44.8491 0.0316115 44.0888 0.0316115L35.2619 0H28.66L19.9892 0.0316115C19.2275 0.0316115 18.4658 0.0312232 17.7041 0.0358834C17.0624 0.0398445 16.421 0.0471455 15.7795 0.0644658C14.3819 0.102136 12.9719 0.18431 11.5897 0.432231C10.1875 0.68357 8.88234 1.09398 7.60841 1.74089C6.35615 2.37685 5.21029 3.20752 4.21675 4.19866C3.22336 5.18957 2.39066 6.3324 1.75323 7.58133C1.10422 8.85286 0.692733 10.1555 0.440618 11.555C0.192387 12.9333 0.110135 14.3392 0.0723101 15.733C0.0550676 16.3728 0.0476113 17.0128 0.0437278 17.6528C0.0390677 18.4127 0 19.3566 0 20.1164L0.000233008 28.6671L0 35.3397L0.039456 44.072C0.039456 44.8328 0.0391453 45.5937 0.0437278 46.3545C0.0476113 46.9955 0.0550676 47.6363 0.0723878 48.277C0.110135 49.6731 0.192542 51.0815 0.441006 52.4623C0.693043 53.8629 1.10446 55.1666 1.75292 56.4391C2.39043 57.69 3.22328 58.8346 4.21675 59.827C5.21021 60.8194 6.35576 61.651 7.60779 62.2878C8.8825 62.9361 10.1883 63.3472 11.5913 63.5989C12.973 63.8469 14.3824 63.9292 15.7795 63.9668C16.421 63.9842 17.0625 63.9915 17.7042 63.9954C18.4659 64.0001 19.2275 63.9998 19.9892 63.9998L28.7383 64H35.3566L44.0888 63.9997C44.8491 63.9997 45.6093 64.0001 46.3695 63.9954C47.0099 63.9915 47.6501 63.9842 48.2904 63.9668C49.6853 63.9291 51.0925 63.8468 52.4722 63.5986C53.8716 63.3469 55.1742 62.9359 56.4457 62.2881C57.6956 61.6514 58.8392 60.8195 59.8307 59.827C60.8222 58.8347 61.6533 57.6904 62.2896 56.4396C62.9372 55.1665 63.3479 53.8622 63.5995 52.4606C63.8473 51.0804 63.9295 49.6726 63.9671 48.277C63.9845 47.6362 63.9918 46.9954 63.9956 46.3545C64.0004 45.5937 64 44.8328 64 44.072C64 44.072 63.9995 35.4939 63.9995 35.3397V28.6601C63.9995 28.5462 64 19.9322 64 19.9322Z" fill="url(#paint0_linear_2_1674)" fill-opacity="0.01"/>
</g>
</g>
<g clip-path="url(#clip1_2_1674)" filter="url(#filter1_dd_2_1674)">
<path d="M15 44.4549V19.4137C15 19.2434 15.073 19.146 15.2434 19.146C15.6571 19.146 16.0464 19.146 16.6061 19.1217C17.1902 19.0973 17.7986 19.0973 18.4556 19.073C19.1127 19.0487 19.8184 19.0487 20.5728 19.0243C21.3272 19 22.0573 19 22.7874 19C24.7829 19 26.4377 19.2434 27.8005 19.7544C29.0172 20.1681 30.1367 20.8495 31.0614 21.7499C31.8402 22.5286 32.4485 23.4777 32.8379 24.5242C33.2029 25.5462 33.3976 26.5927 33.3976 27.6878C33.3976 29.7806 32.9109 31.5084 31.9375 32.8712C30.9641 34.234 29.6013 35.2561 28.0195 35.8402C26.3647 36.4485 24.5395 36.6676 22.544 36.6676C21.96 36.6676 21.5706 36.6676 21.3272 36.6432C21.0839 36.6189 20.7432 36.6189 20.2808 36.6189V44.4306C20.3051 44.6009 20.1835 44.747 20.0131 44.7713C19.9888 44.7713 19.9644 44.7713 19.9158 44.7713H15.292C15.0973 44.7713 15 44.6739 15 44.4549ZM20.3051 23.8428V32.0195C20.6458 32.0438 20.9622 32.0682 21.2542 32.0682H22.544C23.4931 32.0682 24.4422 31.9221 25.3426 31.6301C26.1213 31.4111 26.8027 30.9487 27.3381 30.3403C27.8491 29.732 28.0925 28.9045 28.0925 27.8338C28.1168 27.0794 27.9221 26.325 27.5328 25.6679C27.1191 25.0352 26.535 24.5485 25.8293 24.2808C24.9289 23.9158 23.9555 23.7698 22.9577 23.7941C22.325 23.7941 21.7653 23.7941 21.3029 23.8184C20.8162 23.7941 20.4755 23.8184 20.3051 23.8428Z" fill="url(#paint1_linear_2_1674)"/>
<path d="M48.5843 30.5349C47.8543 30.1455 47.0755 29.8778 46.2481 29.7074C45.3477 29.5128 44.4473 29.3911 43.5226 29.3911C43.0358 29.3668 42.5248 29.4398 42.0624 29.5614C41.7461 29.6344 41.4784 29.8048 41.308 30.0481C41.1863 30.2428 41.1133 30.4862 41.1133 30.7052C41.1133 30.9242 41.2107 31.1432 41.3567 31.3379C41.5757 31.6056 41.8677 31.8246 42.1841 31.995C42.7438 32.287 43.3279 32.5547 43.9119 32.7981C45.226 33.2361 46.4915 33.8445 47.6596 34.5745C48.4627 35.0856 49.1197 35.767 49.5821 36.5944C49.9715 37.3731 50.1661 38.2249 50.1418 39.101C50.1661 40.2447 49.8254 41.3885 49.1927 42.3376C48.5113 43.311 47.5622 44.0654 46.4671 44.5034C45.2747 45.0145 43.8146 45.2822 42.0624 45.2822C40.943 45.2822 39.8479 45.1848 38.7528 44.9658C37.9011 44.8198 37.0493 44.5521 36.2706 44.1871C36.1002 44.0897 35.9786 43.9194 36.0029 43.7247V39.4903C36.0029 39.4173 36.0272 39.32 36.1002 39.2713C36.1732 39.2226 36.2462 39.247 36.3192 39.2956C37.2683 39.8553 38.2661 40.2447 39.3368 40.4881C40.2616 40.7314 41.235 40.8531 42.2084 40.8531C43.1332 40.8531 43.7902 40.7314 44.2283 40.5124C44.6177 40.3421 44.8853 39.9284 44.8853 39.4903C44.8853 39.1496 44.6907 38.8333 44.3013 38.5169C43.9119 38.2005 43.1089 37.8355 41.9164 37.3731C40.6753 36.9351 39.5315 36.351 38.4608 35.621C37.7064 35.0856 37.0736 34.3799 36.6113 33.5525C36.2219 32.7737 36.0272 31.922 36.0516 31.0702C36.0516 30.0238 36.3436 29.0261 36.879 28.1256C37.4874 27.1522 38.3878 26.3735 39.4342 25.8868C40.578 25.3027 42.0138 25.035 43.7416 25.035C44.7393 25.035 45.7614 25.108 46.7592 25.2541C47.4892 25.3514 48.195 25.5461 48.852 25.8138C48.9494 25.8381 49.0467 25.9354 49.0954 26.0328C49.1197 26.1301 49.1441 26.2275 49.1441 26.3248V30.2915C49.1441 30.3888 49.0954 30.4862 49.0224 30.5349C48.8034 30.5835 48.6817 30.5835 48.5843 30.5349Z" fill="url(#paint2_linear_2_1674)"/>
</g>
</g>
<defs>
<filter id="filter0_ii_2_1674" x="0" y="-1.5534" width="64" height="66.6408" filterUnits="userSpaceOnUse" color-interpolation-filters="sRGB">
<feFlood flood-opacity="0" result="BackgroundImageFix"/>
<feBlend mode="normal" in="SourceGraphic" in2="BackgroundImageFix" result="shape"/>
<feColorMatrix in="SourceAlpha" type="matrix" values="0 0 0 0 0 0 0 0 0 0 0 0 0 0 0 0 0 0 127 0" result="hardAlpha"/>
<feOffset dy="-1.5534"/>
<feGaussianBlur stdDeviation="1.5534"/>
<feComposite in2="hardAlpha" operator="arithmetic" k2="-1" k3="1"/>
<feColorMatrix type="matrix" values="0 0 0 0 0 0 0 0 0 0 0 0 0 0 0 0 0 0 0.3 0"/>
<feBlend mode="normal" in2="shape" result="effect1_innerShadow_2_1674"/>
<feColorMatrix in="SourceAlpha" type="matrix" values="0 0 0 0 0 0 0 0 0 0 0 0 0 0 0 0 0 0 127 0" result="hardAlpha"/>
<feOffset dy="1.08738"/>
<feGaussianBlur stdDeviation="2.48544"/>
<feComposite in2="hardAlpha" operator="arithmetic" k2="-1" k3="1"/>
<feColorMatrix type="matrix" values="0 0 0 0 1 0 0 0 0 1 0 0 0 0 1 0 0 0 0.15 0"/>
<feBlend mode="normal" in2="effect1_innerShadow_2_1674" result="effect2_innerShadow_2_1674"/>
</filter>
<filter id="filter1_dd_2_1674" x="7.60149" y="13.4511" width="49.9408" height="41.0792" filterUnits="userSpaceOnUse" color-interpolation-filters="sRGB">
<feFlood flood-opacity="0" result="BackgroundImageFix"/>
<feColorMatrix in="SourceAlpha" type="matrix" values="0 0 0 0 0 0 0 0 0 0 0 0 0 0 0 0 0 0 127 0" result="hardAlpha"/>
<feMorphology radius="1.84963" operator="dilate" in="SourceAlpha" result="effect1_dropShadow_2_1674"/>
<feOffset dy="1.84963"/>
<feGaussianBlur stdDeviation="2.77444"/>
<feColorMatrix type="matrix" values="0 0 0 0 0 0 0 0 0 0 0 0 0 0 0 0 0 0 0.15 0"/>
<feBlend mode="normal" in2="BackgroundImageFix" result="effect1_dropShadow_2_1674"/>
<feColorMatrix in="SourceAlpha" type="matrix" values="0 0 0 0 0 0 0 0 0 0 0 0 0 0 0 0 0 0 127 0" result="hardAlpha"/>
<feOffset dy="0.924814"/>
<feGaussianBlur stdDeviation="0.924814"/>
<feColorMatrix type="matrix" values="0 0 0 0 0 0 0 0 0 0 0 0 0 0 0 0 0 0 0.3 0"/>
<feBlend mode="normal" in2="effect1_dropShadow_2_1674" result="effect2_dropShadow_2_1674"/>
<feBlend mode="normal" in="SourceGraphic" in2="effect2_dropShadow_2_1674" result="shape"/>
</filter>
<linearGradient id="paint0_linear_2_1674" x1="-21.8362" y1="0" x2="-21.8362" y2="107.672" gradientUnits="userSpaceOnUse">
<stop stop-color="white"/>
<stop offset="0.489516" stop-color="#EFEFEF"/>
<stop offset="1" stop-color="#C0C0C0"/>
</linearGradient>
<linearGradient id="paint1_linear_2_1674" x1="24.1988" y1="19" x2="24.1988" y2="44.7713" gradientUnits="userSpaceOnUse">
<stop stop-color="#6AC0FF"/>
<stop offset="1" stop-color="#0C65A6"/>
</linearGradient>
<linearGradient id="paint2_linear_2_1674" x1="43.0718" y1="25.035" x2="43.0718" y2="45.2822" gradientUnits="userSpaceOnUse">
<stop stop-color="#6AC0FF"/>
<stop offset="1" stop-color="#0C65A6"/>
</linearGradient>
<clipPath id="clip0_2_1674">
<rect width="64" height="64" fill="white"/>
</clipPath>
<clipPath id="clip1_2_1674">
<rect width="35.1438" height="26.2822" fill="white" transform="translate(15 19)"/>
</clipPath>
</defs>
</svg>
