<svg width="64" height="64" viewBox="0 0 64 64" fill="none" xmlns="http://www.w3.org/2000/svg">
<g clip-path="url(#clip0_2_1671)">
<mask id="mask0_2_1671" style="mask-type:luminance" maskUnits="userSpaceOnUse" x="0" y="0" width="64" height="64">
<path fill-rule="evenodd" clip-rule="evenodd" d="M64 19.9322C64 19.1724 64.0003 18.4126 63.9956 17.6528C63.9918 17.0127 63.9845 16.3728 63.9671 15.733C63.9295 14.3386 63.8472 12.9322 63.5992 11.5534C63.3477 10.1546 62.937 8.85278 62.2898 7.58188C61.6535 6.33272 60.8224 5.18965 59.8307 4.19866C58.8393 3.20768 57.6959 2.37708 56.4463 1.7412C55.174 1.09382 53.8708 0.68326 52.4705 0.431843C51.0915 0.184232 49.6848 0.102136 48.2904 0.0644658C47.6501 0.0471455 47.0099 0.0398445 46.3695 0.0358834C45.6093 0.0312232 44.8491 0.0316115 44.0888 0.0316115L35.2619 0H28.66L19.9892 0.0316115C19.2275 0.0316115 18.4658 0.0312232 17.7041 0.0358834C17.0624 0.0398445 16.421 0.0471455 15.7795 0.0644658C14.3819 0.102136 12.9719 0.18431 11.5897 0.432231C10.1875 0.68357 8.88234 1.09398 7.60841 1.74089C6.35615 2.37685 5.21029 3.20752 4.21675 4.19866C3.22335 5.18957 2.39066 6.3324 1.75323 7.58133C1.10422 8.85286 0.692733 10.1555 0.440618 11.555C0.192387 12.9333 0.110135 14.3392 0.0723101 15.733C0.0550676 16.3728 0.0476113 17.0128 0.0437278 17.6528C0.0390677 18.4127 0 19.3566 0 20.1164L0.000233008 28.6671L0 35.3397L0.039456 44.072C0.039456 44.8328 0.0391453 45.5937 0.0437278 46.3545C0.0476113 46.9955 0.0550676 47.6363 0.0723878 48.277C0.110135 49.6731 0.192542 51.0815 0.441006 52.4623C0.693043 53.8629 1.10446 55.1666 1.75292 56.4391C2.39043 57.69 3.22328 58.8346 4.21675 59.827C5.21021 60.8194 6.35576 61.651 7.60779 62.2878C8.8825 62.9361 10.1883 63.3472 11.5913 63.5989C12.973 63.8469 14.3824 63.9292 15.7795 63.9668C16.421 63.9842 17.0625 63.9915 17.7042 63.9954C18.4659 64.0001 19.2275 63.9998 19.9892 63.9998L28.7383 64H35.3566L44.0888 63.9997C44.8491 63.9997 45.6093 64.0001 46.3695 63.9954C47.0099 63.9915 47.6501 63.9842 48.2904 63.9668C49.6853 63.9291 51.0925 63.8468 52.4722 63.5986C53.8716 63.3469 55.1742 62.9359 56.4457 62.2881C57.6956 61.6514 58.8392 60.8195 59.8307 59.827C60.8222 58.8347 61.6533 57.6904 62.2896 56.4396C62.9372 55.1665 63.3479 53.8622 63.5995 52.4606C63.8473 51.0804 63.9295 49.6726 63.9671 48.277C63.9845 47.6362 63.9918 46.9954 63.9956 46.3545C64.0004 45.5937 64 44.8328 64 44.072C64 44.072 63.9995 35.4939 63.9995 35.3397V28.6601C63.9995 28.5462 64 19.9322 64 19.9322Z" fill="white"/>
</mask>
<g mask="url(#mask0_2_1671)">
<rect x="-4.50485" y="-4.81555" width="70.9903" height="70.9903" fill="#101010"/>
<g filter="url(#filter0_ii_2_1671)">
<path fill-rule="evenodd" clip-rule="evenodd" d="M64 19.9322C64 19.1724 64.0003 18.4126 63.9956 17.6528C63.9918 17.0127 63.9845 16.3728 63.9671 15.733C63.9295 14.3386 63.8472 12.9322 63.5992 11.5534C63.3477 10.1546 62.937 8.85278 62.2898 7.58188C61.6535 6.33272 60.8224 5.18965 59.8307 4.19866C58.8393 3.20768 57.6959 2.37708 56.4463 1.7412C55.174 1.09382 53.8708 0.68326 52.4705 0.431843C51.0915 0.184232 49.6848 0.102136 48.2904 0.0644658C47.6501 0.0471455 47.0099 0.0398445 46.3695 0.0358834C45.6093 0.0312232 44.8491 0.0316115 44.0888 0.0316115L35.2619 0H28.66L19.9892 0.0316115C19.2275 0.0316115 18.4658 0.0312232 17.7041 0.0358834C17.0624 0.0398445 16.421 0.0471455 15.7795 0.0644658C14.3819 0.102136 12.9719 0.18431 11.5897 0.432231C10.1875 0.68357 8.88234 1.09398 7.60841 1.74089C6.35615 2.37685 5.21029 3.20752 4.21675 4.19866C3.22335 5.18957 2.39066 6.3324 1.75323 7.58133C1.10422 8.85286 0.692733 10.1555 0.440618 11.555C0.192387 12.9333 0.110135 14.3392 0.0723101 15.733C0.0550676 16.3728 0.0476113 17.0128 0.0437278 17.6528C0.0390677 18.4127 0 19.3566 0 20.1164L0.000233008 28.6671L0 35.3397L0.039456 44.072C0.039456 44.8328 0.0391453 45.5937 0.0437278 46.3545C0.0476113 46.9955 0.0550676 47.6363 0.0723878 48.277C0.110135 49.6731 0.192542 51.0815 0.441006 52.4623C0.693043 53.8629 1.10446 55.1666 1.75292 56.4391C2.39043 57.69 3.22328 58.8346 4.21675 59.827C5.21021 60.8194 6.35576 61.651 7.60779 62.2878C8.8825 62.9361 10.1883 63.3472 11.5913 63.5989C12.973 63.8469 14.3824 63.9292 15.7795 63.9668C16.421 63.9842 17.0625 63.9915 17.7042 63.9954C18.4659 64.0001 19.2275 63.9998 19.9892 63.9998L28.7383 64H35.3566L44.0888 63.9997C44.8491 63.9997 45.6093 64.0001 46.3695 63.9954C47.0099 63.9915 47.6501 63.9842 48.2904 63.9668C49.6853 63.9291 51.0925 63.8468 52.4722 63.5986C53.8716 63.3469 55.1742 62.9359 56.4457 62.2881C57.6956 61.6514 58.8392 60.8195 59.8307 59.827C60.8222 58.8347 61.6533 57.6904 62.2896 56.4396C62.9372 55.1665 63.3479 53.8622 63.5995 52.4606C63.8473 51.0804 63.9295 49.6726 63.9671 48.277C63.9845 47.6362 63.9918 46.9954 63.9956 46.3545C64.0004 45.5937 64 44.8328 64 44.072C64 44.072 63.9995 35.4939 63.9995 35.3397V28.6601C63.9995 28.5462 64 19.9322 64 19.9322Z" fill="#3A043B"/>
</g>
</g>
<g clip-path="url(#clip1_2_1671)">
<path fill-rule="evenodd" clip-rule="evenodd" d="M27.224 14C25.2302 14.0015 23.6167 15.6195 23.6181 17.6133C23.6167 19.607 25.2317 21.225 27.2255 21.2265H30.8329V17.6147C30.8343 15.621 29.2193 14.0029 27.224 14C27.2255 14 27.2255 14 27.224 14ZM27.224 23.6373H17.6073C15.6136 23.6388 13.9985 25.2568 14 27.2506C13.997 29.2443 15.6121 30.8624 17.6059 30.8653H27.224C29.2178 30.8638 30.8329 29.2458 30.8314 27.252C30.8329 25.2568 29.2178 23.6388 27.224 23.6373Z" fill="url(#paint0_linear_2_1671)"/>
<path fill-rule="evenodd" clip-rule="evenodd" d="M50.0677 27.2506C50.0692 25.2568 48.4542 23.6388 46.4604 23.6373C44.4666 23.6388 42.8515 25.2568 42.853 27.2506V30.8653H46.4604C48.4542 30.8638 50.0692 29.2458 50.0677 27.2506ZM40.4496 27.2506V17.6133C40.4511 15.621 38.8375 14.0029 36.8437 14C34.8499 14.0015 33.2349 15.6195 33.2363 17.6133V27.2506C33.2334 29.2443 34.8484 30.8624 36.8422 30.8653C38.836 30.8638 40.4511 29.2458 40.4496 27.2506Z" fill="url(#paint1_linear_2_1671)"/>
<path fill-rule="evenodd" clip-rule="evenodd" d="M36.8422 50.1399C38.836 50.1384 40.451 48.5204 40.4496 46.5267C40.451 44.5329 38.836 42.9149 36.8422 42.9134H33.2348V46.5267C33.2334 48.519 34.8484 50.137 36.8422 50.1399ZM36.8422 40.5011H46.4604C48.4541 40.4996 50.0692 38.8816 50.0677 36.8879C50.0707 34.8941 48.4556 33.2761 46.4618 33.2731H36.8437C34.8499 33.2746 33.2348 34.8926 33.2363 36.8864C33.2348 38.8816 34.8484 40.4996 36.8422 40.5011Z" fill="url(#paint2_linear_2_1671)"/>
<path fill-rule="evenodd" clip-rule="evenodd" d="M14 36.8879C13.9985 38.8817 15.6136 40.4997 17.6074 40.5012C19.6011 40.4997 21.2162 38.8817 21.2147 36.8879V33.2747H17.6074C15.6136 33.2761 13.9985 34.8941 14 36.8879ZM23.6182 36.8879V46.5252C23.6152 48.519 25.2303 50.137 27.2241 50.14C29.2178 50.1385 30.8329 48.5205 30.8314 46.5267V36.8909C30.8344 34.8971 29.2193 33.2791 27.2255 33.2761C25.2303 33.2761 23.6167 34.8941 23.6182 36.8879Z" fill="url(#paint3_linear_2_1671)"/>
</g>
</g>
<defs>
<filter id="filter0_ii_2_1671" x="0" y="-1.5534" width="64" height="66.6408" filterUnits="userSpaceOnUse" color-interpolation-filters="sRGB">
<feFlood flood-opacity="0" result="BackgroundImageFix"/>
<feBlend mode="normal" in="SourceGraphic" in2="BackgroundImageFix" result="shape"/>
<feColorMatrix in="SourceAlpha" type="matrix" values="0 0 0 0 0 0 0 0 0 0 0 0 0 0 0 0 0 0 127 0" result="hardAlpha"/>
<feOffset dy="-1.5534"/>
<feGaussianBlur stdDeviation="1.5534"/>
<feComposite in2="hardAlpha" operator="arithmetic" k2="-1" k3="1"/>
<feColorMatrix type="matrix" values="0 0 0 0 0 0 0 0 0 0 0 0 0 0 0 0 0 0 0.3 0"/>
<feBlend mode="normal" in2="shape" result="effect1_innerShadow_2_1671"/>
<feColorMatrix in="SourceAlpha" type="matrix" values="0 0 0 0 0 0 0 0 0 0 0 0 0 0 0 0 0 0 127 0" result="hardAlpha"/>
<feOffset dy="1.08738"/>
<feGaussianBlur stdDeviation="2.48544"/>
<feComposite in2="hardAlpha" operator="arithmetic" k2="-1" k3="1"/>
<feColorMatrix type="matrix" values="0 0 0 0 1 0 0 0 0 1 0 0 0 0 1 0 0 0 0.15 0"/>
<feBlend mode="normal" in2="effect1_innerShadow_2_1671" result="effect2_innerShadow_2_1671"/>
</filter>
<linearGradient id="paint0_linear_2_1671" x1="22.4164" y1="14" x2="22.4164" y2="30.8653" gradientUnits="userSpaceOnUse">
<stop stop-color="#36C5F0"/>
<stop offset="1" stop-color="#02A7D9"/>
</linearGradient>
<linearGradient id="paint1_linear_2_1671" x1="41.652" y1="14" x2="41.652" y2="30.8653" gradientUnits="userSpaceOnUse">
<stop stop-color="#2EB67D"/>
<stop offset="1" stop-color="#16905D"/>
</linearGradient>
<linearGradient id="paint2_linear_2_1671" x1="41.6513" y1="33.2731" x2="41.6513" y2="50.1399" gradientUnits="userSpaceOnUse">
<stop stop-color="#ECB22E"/>
<stop offset="1" stop-color="#CE6300"/>
</linearGradient>
<linearGradient id="paint3_linear_2_1671" x1="22.4157" y1="33.2747" x2="22.4157" y2="50.14" gradientUnits="userSpaceOnUse">
<stop stop-color="#E01E5A"/>
<stop offset="1" stop-color="#B10A3E"/>
</linearGradient>
<clipPath id="clip0_2_1671">
<rect width="64" height="64" fill="white"/>
</clipPath>
<clipPath id="clip1_2_1671">
<rect width="36.0677" height="36.1399" fill="white" transform="translate(14 14)"/>
</clipPath>
</defs>
</svg>
